<svg width="490" height="150" viewBox="0 0 490 150" fill="none" xmlns="http://www.w3.org/2000/svg">
<path d="M72.604 69.78C72.3693 67.5213 71.548 65.8933 70.14 64.896C68.7613 63.8693 66.9867 63.356 64.816 63.356C63.936 63.356 63.0707 63.444 62.22 63.62C61.3693 63.796 60.6067 64.0893 59.932 64.5C59.2867 64.9107 58.7587 65.468 58.348 66.172C57.9667 66.8467 57.776 67.6973 57.776 68.724C57.776 69.692 58.0547 70.484 58.612 71.1C59.1987 71.6867 59.9613 72.1707 60.9 72.552C61.868 72.9333 62.9533 73.256 64.156 73.52C65.3587 73.7547 66.576 74.0187 67.808 74.312C69.0693 74.6053 70.3013 74.9573 71.504 75.368C72.7067 75.7493 73.7773 76.2773 74.716 76.952C75.684 77.6267 76.4467 78.4773 77.004 79.504C77.5907 80.5307 77.884 81.8213 77.884 83.376C77.884 85.048 77.5027 86.4853 76.74 87.688C76.0067 88.8613 75.0533 89.8293 73.88 90.592C72.7067 91.3253 71.3867 91.8533 69.92 92.176C68.4827 92.528 67.0453 92.704 65.608 92.704C63.848 92.704 62.176 92.484 60.592 92.044C59.0373 91.604 57.6587 90.944 56.456 90.064C55.2827 89.1547 54.344 88.0107 53.64 86.632C52.9653 85.224 52.628 83.5667 52.628 81.66H56.588C56.588 82.98 56.8373 84.124 57.336 85.092C57.864 86.0307 58.5387 86.808 59.36 87.424C60.2107 88.04 61.1933 88.4947 62.308 88.788C63.4227 89.0813 64.5667 89.228 65.74 89.228C66.6787 89.228 67.6173 89.14 68.556 88.964C69.524 88.788 70.3893 88.4947 71.152 88.084C71.9147 87.644 72.5307 87.0573 73 86.324C73.4693 85.5907 73.704 84.652 73.704 83.508C73.704 82.4227 73.4107 81.5427 72.824 80.868C72.2667 80.1933 71.504 79.6507 70.536 79.24C69.5973 78.8 68.5267 78.448 67.324 78.184C66.1213 77.92 64.8893 77.656 63.628 77.392C62.396 77.0987 61.1787 76.776 59.976 76.424C58.7733 76.0427 57.688 75.5587 56.72 74.972C55.7813 74.356 55.0187 73.5787 54.432 72.64C53.8747 71.672 53.596 70.4693 53.596 69.032C53.596 67.448 53.9187 66.084 54.564 64.94C55.2093 63.7667 56.06 62.8133 57.116 62.08C58.2013 61.3173 59.4187 60.76 60.768 60.408C62.1467 60.0267 63.5547 59.836 64.992 59.836C66.6053 59.836 68.1013 60.0267 69.48 60.408C70.8587 60.7893 72.0613 61.3907 73.088 62.212C74.144 63.0333 74.9653 64.0747 75.552 65.336C76.168 66.568 76.5053 68.0493 76.564 69.78H72.604ZM87.5393 69.252H92.0713V72.552H87.5393V86.676C87.5393 87.116 87.5686 87.468 87.6273 87.732C87.7153 87.996 87.8619 88.2013 88.0673 88.348C88.2726 88.4947 88.5513 88.5973 88.9033 88.656C89.2846 88.6853 89.7686 88.7 90.3553 88.7H92.0713V92H89.2113C88.2433 92 87.4073 91.9413 86.7033 91.824C86.0286 91.6773 85.4713 91.428 85.0312 91.076C84.6206 90.724 84.3126 90.2253 84.1073 89.58C83.9019 88.9347 83.7993 88.084 83.7993 87.028V72.552H79.9273V69.252H83.7993V62.432H87.5393V69.252ZM116.378 91.912C115.733 92.2933 114.838 92.484 113.694 92.484C112.726 92.484 111.949 92.22 111.362 91.692C110.805 91.1347 110.526 90.24 110.526 89.008C109.499 90.24 108.297 91.1347 106.918 91.692C105.569 92.22 104.102 92.484 102.518 92.484C101.491 92.484 100.509 92.3667 99.5702 92.132C98.6608 91.8973 97.8688 91.5307 97.1942 91.032C96.5195 90.5333 95.9768 89.888 95.5662 89.096C95.1848 88.2747 94.9942 87.292 94.9942 86.148C94.9942 84.8573 95.2142 83.8013 95.6542 82.98C96.0942 82.1587 96.6662 81.4987 97.3702 81C98.1035 80.472 98.9248 80.076 99.8342 79.812C100.773 79.548 101.726 79.328 102.694 79.152C103.721 78.9467 104.689 78.8 105.598 78.712C106.537 78.5947 107.358 78.448 108.062 78.272C108.766 78.0667 109.323 77.788 109.734 77.436C110.145 77.0547 110.35 76.512 110.35 75.808C110.35 74.9867 110.189 74.3267 109.866 73.828C109.573 73.3293 109.177 72.948 108.678 72.684C108.209 72.42 107.666 72.244 107.05 72.156C106.463 72.068 105.877 72.024 105.29 72.024C103.706 72.024 102.386 72.332 101.33 72.948C100.274 73.5347 99.7022 74.664 99.6142 76.336H95.8742C95.9328 74.928 96.2262 73.74 96.7542 72.772C97.2822 71.804 97.9862 71.0267 98.8662 70.44C99.7462 69.824 100.743 69.384 101.858 69.12C103.002 68.856 104.219 68.724 105.51 68.724C106.537 68.724 107.549 68.7973 108.546 68.944C109.573 69.0907 110.497 69.3987 111.318 69.868C112.139 70.308 112.799 70.9387 113.298 71.76C113.797 72.5813 114.046 73.652 114.046 74.972V86.676C114.046 87.556 114.09 88.2013 114.178 88.612C114.295 89.0227 114.647 89.228 115.234 89.228C115.557 89.228 115.938 89.1547 116.378 89.008V91.912ZM110.306 80.252C109.837 80.604 109.221 80.868 108.458 81.044C107.695 81.1907 106.889 81.3227 106.038 81.44C105.217 81.528 104.381 81.6453 103.53 81.792C102.679 81.9093 101.917 82.1147 101.242 82.408C100.567 82.7013 100.01 83.1267 99.5702 83.684C99.1595 84.212 98.9542 84.9453 98.9542 85.884C98.9542 86.5 99.0715 87.028 99.3062 87.468C99.5702 87.8787 99.8928 88.216 100.274 88.48C100.685 88.744 101.154 88.9347 101.682 89.052C102.21 89.1693 102.767 89.228 103.354 89.228C104.586 89.228 105.642 89.0667 106.522 88.744C107.402 88.392 108.121 87.9667 108.678 87.468C109.235 86.94 109.646 86.3827 109.91 85.796C110.174 85.18 110.306 84.608 110.306 84.08V80.252ZM119.859 69.252H123.379V72.86H123.467C125.022 70.1027 127.486 68.724 130.859 68.724C132.355 68.724 133.602 68.9293 134.599 69.34C135.596 69.7507 136.403 70.3227 137.019 71.056C137.635 71.7893 138.06 72.6693 138.295 73.696C138.559 74.6933 138.691 75.808 138.691 77.04V92H134.951V76.6C134.951 75.192 134.54 74.0773 133.719 73.256C132.898 72.4347 131.768 72.024 130.331 72.024C129.187 72.024 128.19 72.2 127.339 72.552C126.518 72.904 125.828 73.4027 125.271 74.048C124.714 74.6933 124.288 75.456 123.995 76.336C123.731 77.1867 123.599 78.1253 123.599 79.152V92H119.859V69.252ZM147.036 80.824C147.036 81.88 147.168 82.9213 147.432 83.948C147.726 84.9453 148.151 85.84 148.708 86.632C149.295 87.424 150.028 88.0547 150.908 88.524C151.818 88.9933 152.874 89.228 154.076 89.228C155.338 89.228 156.408 88.9787 157.288 88.48C158.168 87.9813 158.887 87.336 159.444 86.544C160.002 85.7227 160.398 84.7987 160.632 83.772C160.896 82.7453 161.028 81.704 161.028 80.648C161.028 79.5333 160.896 78.4627 160.632 77.436C160.368 76.38 159.943 75.456 159.356 74.664C158.799 73.872 158.066 73.2413 157.156 72.772C156.247 72.2733 155.147 72.024 153.856 72.024C152.595 72.024 151.524 72.2733 150.644 72.772C149.764 73.2707 149.06 73.9307 148.532 74.752C148.004 75.5733 147.623 76.512 147.388 77.568C147.154 78.624 147.036 79.7093 147.036 80.824ZM164.636 92H160.896V88.92H160.808C160.192 90.1813 159.224 91.0907 157.904 91.648C156.584 92.2053 155.132 92.484 153.548 92.484C151.788 92.484 150.248 92.1613 148.928 91.516C147.638 90.8707 146.552 90.0053 145.672 88.92C144.822 87.8347 144.176 86.5733 143.736 85.136C143.296 83.6987 143.076 82.1733 143.076 80.56C143.076 78.9467 143.282 77.4213 143.692 75.984C144.132 74.5467 144.778 73.3 145.628 72.244C146.508 71.1587 147.594 70.308 148.884 69.692C150.204 69.0467 151.73 68.724 153.46 68.724C154.047 68.724 154.678 68.7827 155.352 68.9C156.027 69.0173 156.702 69.2227 157.376 69.516C158.051 69.78 158.682 70.1467 159.268 70.616C159.884 71.056 160.398 71.6133 160.808 72.288H160.896V60.584H164.636V92ZM190.542 91.912C189.897 92.2933 189.002 92.484 187.858 92.484C186.89 92.484 186.113 92.22 185.526 91.692C184.969 91.1347 184.69 90.24 184.69 89.008C183.664 90.24 182.461 91.1347 181.082 91.692C179.733 92.22 178.266 92.484 176.682 92.484C175.656 92.484 174.673 92.3667 173.734 92.132C172.825 91.8973 172.033 91.5307 171.358 91.032C170.684 90.5333 170.141 89.888 169.73 89.096C169.349 88.2747 169.158 87.292 169.158 86.148C169.158 84.8573 169.378 83.8013 169.818 82.98C170.258 82.1587 170.83 81.4987 171.534 81C172.268 80.472 173.089 80.076 173.998 79.812C174.937 79.548 175.89 79.328 176.858 79.152C177.885 78.9467 178.853 78.8 179.762 78.712C180.701 78.5947 181.522 78.448 182.226 78.272C182.93 78.0667 183.488 77.788 183.898 77.436C184.309 77.0547 184.514 76.512 184.514 75.808C184.514 74.9867 184.353 74.3267 184.03 73.828C183.737 73.3293 183.341 72.948 182.842 72.684C182.373 72.42 181.83 72.244 181.214 72.156C180.628 72.068 180.041 72.024 179.454 72.024C177.87 72.024 176.55 72.332 175.494 72.948C174.438 73.5347 173.866 74.664 173.778 76.336H170.038C170.097 74.928 170.39 73.74 170.918 72.772C171.446 71.804 172.15 71.0267 173.03 70.44C173.91 69.824 174.908 69.384 176.022 69.12C177.166 68.856 178.384 68.724 179.674 68.724C180.701 68.724 181.713 68.7973 182.71 68.944C183.737 69.0907 184.661 69.3987 185.482 69.868C186.304 70.308 186.964 70.9387 187.462 71.76C187.961 72.5813 188.21 73.652 188.21 74.972V86.676C188.21 87.556 188.254 88.2013 188.342 88.612C188.46 89.0227 188.812 89.228 189.398 89.228C189.721 89.228 190.102 89.1547 190.542 89.008V91.912ZM184.47 80.252C184.001 80.604 183.385 80.868 182.622 81.044C181.86 81.1907 181.053 81.3227 180.202 81.44C179.381 81.528 178.545 81.6453 177.694 81.792C176.844 81.9093 176.081 82.1147 175.406 82.408C174.732 82.7013 174.174 83.1267 173.734 83.684C173.324 84.212 173.118 84.9453 173.118 85.884C173.118 86.5 173.236 87.028 173.47 87.468C173.734 87.8787 174.057 88.216 174.438 88.48C174.849 88.744 175.318 88.9347 175.846 89.052C176.374 89.1693 176.932 89.228 177.518 89.228C178.75 89.228 179.806 89.0667 180.686 88.744C181.566 88.392 182.285 87.9667 182.842 87.468C183.4 86.94 183.81 86.3827 184.074 85.796C184.338 85.18 184.47 84.608 184.47 84.08V80.252ZM193.891 69.252H197.411V74.048H197.499C198.408 72.2 199.523 70.836 200.843 69.956C202.163 69.076 203.835 68.6653 205.859 68.724V72.684C204.363 72.684 203.087 72.8893 202.031 73.3C200.975 73.7107 200.124 74.312 199.479 75.104C198.834 75.896 198.364 76.864 198.071 78.008C197.778 79.1227 197.631 80.4133 197.631 81.88V92H193.891V69.252ZM210.63 80.824C210.63 81.88 210.762 82.9213 211.026 83.948C211.319 84.9453 211.745 85.84 212.302 86.632C212.889 87.424 213.622 88.0547 214.502 88.524C215.411 88.9933 216.467 89.228 217.67 89.228C218.931 89.228 220.002 88.9787 220.882 88.48C221.762 87.9813 222.481 87.336 223.038 86.544C223.595 85.7227 223.991 84.7987 224.226 83.772C224.49 82.7453 224.622 81.704 224.622 80.648C224.622 79.5333 224.49 78.4627 224.226 77.436C223.962 76.38 223.537 75.456 222.95 74.664C222.393 73.872 221.659 73.2413 220.75 72.772C219.841 72.2733 218.741 72.024 217.45 72.024C216.189 72.024 215.118 72.2733 214.238 72.772C213.358 73.2707 212.654 73.9307 212.126 74.752C211.598 75.5733 211.217 76.512 210.982 77.568C210.747 78.624 210.63 79.7093 210.63 80.824ZM228.23 92H224.49V88.92H224.402C223.786 90.1813 222.818 91.0907 221.498 91.648C220.178 92.2053 218.726 92.484 217.142 92.484C215.382 92.484 213.842 92.1613 212.522 91.516C211.231 90.8707 210.146 90.0053 209.266 88.92C208.415 87.8347 207.77 86.5733 207.33 85.136C206.89 83.6987 206.67 82.1733 206.67 80.56C206.67 78.9467 206.875 77.4213 207.286 75.984C207.726 74.5467 208.371 73.3 209.222 72.244C210.102 71.1587 211.187 70.308 212.478 69.692C213.798 69.0467 215.323 68.724 217.054 68.724C217.641 68.724 218.271 68.7827 218.946 68.9C219.621 69.0173 220.295 69.2227 220.97 69.516C221.645 69.78 222.275 70.1467 222.862 70.616C223.478 71.056 223.991 71.6133 224.402 72.288H224.49V60.584H228.23V92ZM234.512 60.584H257.128V65.336H240.012V73.564H255.852V78.052H240.012V87.248H257.436V92H234.512V60.584ZM286.676 60.584H309.292V65.336H292.176V73.564H308.016V78.052H292.176V87.248H309.6V92H286.676V60.584Z" fill="white"/>
<path d="M281.631 92H260.599C260.628 89.448 261.244 87.2187 262.447 85.312C263.649 83.4053 265.292 81.748 267.375 80.34C268.372 79.6067 269.413 78.9027 270.499 78.228C271.584 77.524 272.581 76.776 273.491 75.984C274.4 75.192 275.148 74.3413 275.735 73.432C276.321 72.4933 276.629 71.4227 276.659 70.22C276.659 69.6627 276.585 69.076 276.439 68.46C276.321 67.8147 276.072 67.228 275.691 66.7C275.309 66.1427 274.781 65.688 274.107 65.336C273.432 64.9547 272.552 64.764 271.467 64.764C270.469 64.764 269.633 64.9693 268.959 65.38C268.313 65.7613 267.785 66.304 267.375 67.008C266.993 67.6827 266.7 68.4893 266.495 69.428C266.319 70.3667 266.216 71.3787 266.187 72.464H261.171C261.171 70.7627 261.391 69.1933 261.831 67.756C262.3 66.2893 262.989 65.028 263.899 63.972C264.808 62.916 265.908 62.0947 267.199 61.508C268.519 60.892 270.044 60.584 271.775 60.584C273.652 60.584 275.221 60.892 276.483 61.508C277.744 62.124 278.756 62.9013 279.519 63.84C280.311 64.7787 280.868 65.8053 281.191 66.92C281.513 68.0053 281.675 69.0467 281.675 70.044C281.675 71.276 281.484 72.3907 281.103 73.388C280.721 74.3853 280.208 75.3093 279.563 76.16C278.917 76.9813 278.184 77.744 277.363 78.448C276.541 79.152 275.691 79.812 274.811 80.428C273.931 81.044 273.051 81.6307 272.171 82.188C271.291 82.7453 270.469 83.3027 269.707 83.86C268.973 84.4173 268.328 85.004 267.771 85.62C267.213 86.2067 266.832 86.8373 266.627 87.512H281.631V92Z" fill="#98DB2C"/>
<path d="M438.25 72.196C439.398 73.89 439.398 76.1125 438.25 77.8064L415.302 111.666C413.628 114.136 409.768 112.951 409.768 109.968V109.968C409.768 109.362 409.949 108.77 410.289 108.269L430.936 77.8064C432.084 76.1125 432.084 73.89 430.936 72.196L410.289 41.7314C409.949 41.2301 409.768 40.6385 409.768 40.033V40.033C409.768 37.0496 413.627 35.8649 415.301 38.3345L438.25 72.196Z" fill="white"/>
<path d="M407.867 72.1958C409.015 73.8897 409.015 76.1122 407.867 77.8062L384.918 111.666C383.244 114.136 379.384 112.951 379.384 109.967V109.967C379.384 109.362 379.566 108.77 379.906 108.269L400.552 77.8062C401.7 76.1122 401.7 73.8897 400.552 72.1958L379.906 41.7321C379.566 41.2308 379.384 40.6392 379.384 40.0336V40.0336C379.384 37.0503 383.244 35.8656 384.918 38.3352L407.867 72.1958Z" fill="#98DB2C"/>
<path d="M377.483 72.196C378.631 73.89 378.631 76.1125 377.483 77.8064L354.534 111.666C352.86 114.136 349 112.951 349 109.968V109.968C349 109.362 349.182 108.77 349.521 108.269L370.168 77.8064C371.316 76.1125 371.316 73.89 370.168 72.196L349.521 41.7314C349.182 41.2301 349 40.6385 349 40.033V40.033C349 37.0496 352.86 35.8649 354.533 38.3345L377.483 72.196Z" fill="white"/>
</svg>
