<svg width="490" height="150" viewBox="0 0 490 150" fill="none" xmlns="http://www.w3.org/2000/svg">
<mask id="path-1-outside-1_6_876" maskUnits="userSpaceOnUse" x="50" y="57" width="262" height="38" fill="black">
<rect fill="white" x="50" y="57" width="262" height="38"/>
<path d="M72.604 69.78C72.3693 67.5213 71.548 65.8933 70.14 64.896C68.7613 63.8693 66.9867 63.356 64.816 63.356C63.936 63.356 63.0707 63.444 62.22 63.62C61.3693 63.796 60.6067 64.0893 59.932 64.5C59.2867 64.9107 58.7587 65.468 58.348 66.172C57.9667 66.8467 57.776 67.6973 57.776 68.724C57.776 69.692 58.0547 70.484 58.612 71.1C59.1987 71.6867 59.9613 72.1707 60.9 72.552C61.868 72.9333 62.9533 73.256 64.156 73.52C65.3587 73.7547 66.576 74.0187 67.808 74.312C69.0693 74.6053 70.3013 74.9573 71.504 75.368C72.7067 75.7493 73.7773 76.2773 74.716 76.952C75.684 77.6267 76.4467 78.4773 77.004 79.504C77.5907 80.5307 77.884 81.8213 77.884 83.376C77.884 85.048 77.5027 86.4853 76.74 87.688C76.0067 88.8613 75.0533 89.8293 73.88 90.592C72.7067 91.3253 71.3867 91.8533 69.92 92.176C68.4827 92.528 67.0453 92.704 65.608 92.704C63.848 92.704 62.176 92.484 60.592 92.044C59.0373 91.604 57.6587 90.944 56.456 90.064C55.2827 89.1547 54.344 88.0107 53.64 86.632C52.9653 85.224 52.628 83.5667 52.628 81.66H56.588C56.588 82.98 56.8373 84.124 57.336 85.092C57.864 86.0307 58.5387 86.808 59.36 87.424C60.2107 88.04 61.1933 88.4947 62.308 88.788C63.4227 89.0813 64.5667 89.228 65.74 89.228C66.6787 89.228 67.6173 89.14 68.556 88.964C69.524 88.788 70.3893 88.4947 71.152 88.084C71.9147 87.644 72.5307 87.0573 73 86.324C73.4693 85.5907 73.704 84.652 73.704 83.508C73.704 82.4227 73.4107 81.5427 72.824 80.868C72.2667 80.1933 71.504 79.6507 70.536 79.24C69.5973 78.8 68.5267 78.448 67.324 78.184C66.1213 77.92 64.8893 77.656 63.628 77.392C62.396 77.0987 61.1787 76.776 59.976 76.424C58.7733 76.0427 57.688 75.5587 56.72 74.972C55.7813 74.356 55.0187 73.5787 54.432 72.64C53.8747 71.672 53.596 70.4693 53.596 69.032C53.596 67.448 53.9187 66.084 54.564 64.94C55.2093 63.7667 56.06 62.8133 57.116 62.08C58.2013 61.3173 59.4187 60.76 60.768 60.408C62.1467 60.0267 63.5547 59.836 64.992 59.836C66.6053 59.836 68.1013 60.0267 69.48 60.408C70.8587 60.7893 72.0613 61.3907 73.088 62.212C74.144 63.0333 74.9653 64.0747 75.552 65.336C76.168 66.568 76.5053 68.0493 76.564 69.78H72.604ZM87.5393 69.252H92.0713V72.552H87.5393V86.676C87.5393 87.116 87.5686 87.468 87.6273 87.732C87.7153 87.996 87.8619 88.2013 88.0673 88.348C88.2726 88.4947 88.5513 88.5973 88.9033 88.656C89.2846 88.6853 89.7686 88.7 90.3553 88.7H92.0713V92H89.2113C88.2433 92 87.4073 91.9413 86.7033 91.824C86.0286 91.6773 85.4713 91.428 85.0312 91.076C84.6206 90.724 84.3126 90.2253 84.1073 89.58C83.9019 88.9347 83.7993 88.084 83.7993 87.028V72.552H79.9273V69.252H83.7993V62.432H87.5393V69.252ZM116.378 91.912C115.733 92.2933 114.838 92.484 113.694 92.484C112.726 92.484 111.949 92.22 111.362 91.692C110.805 91.1347 110.526 90.24 110.526 89.008C109.499 90.24 108.297 91.1347 106.918 91.692C105.569 92.22 104.102 92.484 102.518 92.484C101.491 92.484 100.509 92.3667 99.5702 92.132C98.6608 91.8973 97.8688 91.5307 97.1942 91.032C96.5195 90.5333 95.9768 89.888 95.5662 89.096C95.1848 88.2747 94.9942 87.292 94.9942 86.148C94.9942 84.8573 95.2142 83.8013 95.6542 82.98C96.0942 82.1587 96.6662 81.4987 97.3702 81C98.1035 80.472 98.9248 80.076 99.8342 79.812C100.773 79.548 101.726 79.328 102.694 79.152C103.721 78.9467 104.689 78.8 105.598 78.712C106.537 78.5947 107.358 78.448 108.062 78.272C108.766 78.0667 109.323 77.788 109.734 77.436C110.145 77.0547 110.35 76.512 110.35 75.808C110.35 74.9867 110.189 74.3267 109.866 73.828C109.573 73.3293 109.177 72.948 108.678 72.684C108.209 72.42 107.666 72.244 107.05 72.156C106.463 72.068 105.877 72.024 105.29 72.024C103.706 72.024 102.386 72.332 101.33 72.948C100.274 73.5347 99.7022 74.664 99.6142 76.336H95.8742C95.9328 74.928 96.2262 73.74 96.7542 72.772C97.2822 71.804 97.9862 71.0267 98.8662 70.44C99.7462 69.824 100.743 69.384 101.858 69.12C103.002 68.856 104.219 68.724 105.51 68.724C106.537 68.724 107.549 68.7973 108.546 68.944C109.573 69.0907 110.497 69.3987 111.318 69.868C112.139 70.308 112.799 70.9387 113.298 71.76C113.797 72.5813 114.046 73.652 114.046 74.972V86.676C114.046 87.556 114.09 88.2013 114.178 88.612C114.295 89.0227 114.647 89.228 115.234 89.228C115.557 89.228 115.938 89.1547 116.378 89.008V91.912ZM110.306 80.252C109.837 80.604 109.221 80.868 108.458 81.044C107.695 81.1907 106.889 81.3227 106.038 81.44C105.217 81.528 104.381 81.6453 103.53 81.792C102.679 81.9093 101.917 82.1147 101.242 82.408C100.567 82.7013 100.01 83.1267 99.5702 83.684C99.1595 84.212 98.9542 84.9453 98.9542 85.884C98.9542 86.5 99.0715 87.028 99.3062 87.468C99.5702 87.8787 99.8928 88.216 100.274 88.48C100.685 88.744 101.154 88.9347 101.682 89.052C102.21 89.1693 102.767 89.228 103.354 89.228C104.586 89.228 105.642 89.0667 106.522 88.744C107.402 88.392 108.121 87.9667 108.678 87.468C109.235 86.94 109.646 86.3827 109.91 85.796C110.174 85.18 110.306 84.608 110.306 84.08V80.252ZM119.859 69.252H123.379V72.86H123.467C125.022 70.1027 127.486 68.724 130.859 68.724C132.355 68.724 133.602 68.9293 134.599 69.34C135.596 69.7507 136.403 70.3227 137.019 71.056C137.635 71.7893 138.06 72.6693 138.295 73.696C138.559 74.6933 138.691 75.808 138.691 77.04V92H134.951V76.6C134.951 75.192 134.54 74.0773 133.719 73.256C132.898 72.4347 131.768 72.024 130.331 72.024C129.187 72.024 128.19 72.2 127.339 72.552C126.518 72.904 125.828 73.4027 125.271 74.048C124.714 74.6933 124.288 75.456 123.995 76.336C123.731 77.1867 123.599 78.1253 123.599 79.152V92H119.859V69.252ZM147.036 80.824C147.036 81.88 147.168 82.9213 147.432 83.948C147.726 84.9453 148.151 85.84 148.708 86.632C149.295 87.424 150.028 88.0547 150.908 88.524C151.818 88.9933 152.874 89.228 154.076 89.228C155.338 89.228 156.408 88.9787 157.288 88.48C158.168 87.9813 158.887 87.336 159.444 86.544C160.002 85.7227 160.398 84.7987 160.632 83.772C160.896 82.7453 161.028 81.704 161.028 80.648C161.028 79.5333 160.896 78.4627 160.632 77.436C160.368 76.38 159.943 75.456 159.356 74.664C158.799 73.872 158.066 73.2413 157.156 72.772C156.247 72.2733 155.147 72.024 153.856 72.024C152.595 72.024 151.524 72.2733 150.644 72.772C149.764 73.2707 149.06 73.9307 148.532 74.752C148.004 75.5733 147.623 76.512 147.388 77.568C147.154 78.624 147.036 79.7093 147.036 80.824ZM164.636 92H160.896V88.92H160.808C160.192 90.1813 159.224 91.0907 157.904 91.648C156.584 92.2053 155.132 92.484 153.548 92.484C151.788 92.484 150.248 92.1613 148.928 91.516C147.638 90.8707 146.552 90.0053 145.672 88.92C144.822 87.8347 144.176 86.5733 143.736 85.136C143.296 83.6987 143.076 82.1733 143.076 80.56C143.076 78.9467 143.282 77.4213 143.692 75.984C144.132 74.5467 144.778 73.3 145.628 72.244C146.508 71.1587 147.594 70.308 148.884 69.692C150.204 69.0467 151.73 68.724 153.46 68.724C154.047 68.724 154.678 68.7827 155.352 68.9C156.027 69.0173 156.702 69.2227 157.376 69.516C158.051 69.78 158.682 70.1467 159.268 70.616C159.884 71.056 160.398 71.6133 160.808 72.288H160.896V60.584H164.636V92ZM190.542 91.912C189.897 92.2933 189.002 92.484 187.858 92.484C186.89 92.484 186.113 92.22 185.526 91.692C184.969 91.1347 184.69 90.24 184.69 89.008C183.664 90.24 182.461 91.1347 181.082 91.692C179.733 92.22 178.266 92.484 176.682 92.484C175.656 92.484 174.673 92.3667 173.734 92.132C172.825 91.8973 172.033 91.5307 171.358 91.032C170.684 90.5333 170.141 89.888 169.73 89.096C169.349 88.2747 169.158 87.292 169.158 86.148C169.158 84.8573 169.378 83.8013 169.818 82.98C170.258 82.1587 170.83 81.4987 171.534 81C172.268 80.472 173.089 80.076 173.998 79.812C174.937 79.548 175.89 79.328 176.858 79.152C177.885 78.9467 178.853 78.8 179.762 78.712C180.701 78.5947 181.522 78.448 182.226 78.272C182.93 78.0667 183.488 77.788 183.898 77.436C184.309 77.0547 184.514 76.512 184.514 75.808C184.514 74.9867 184.353 74.3267 184.03 73.828C183.737 73.3293 183.341 72.948 182.842 72.684C182.373 72.42 181.83 72.244 181.214 72.156C180.628 72.068 180.041 72.024 179.454 72.024C177.87 72.024 176.55 72.332 175.494 72.948C174.438 73.5347 173.866 74.664 173.778 76.336H170.038C170.097 74.928 170.39 73.74 170.918 72.772C171.446 71.804 172.15 71.0267 173.03 70.44C173.91 69.824 174.908 69.384 176.022 69.12C177.166 68.856 178.384 68.724 179.674 68.724C180.701 68.724 181.713 68.7973 182.71 68.944C183.737 69.0907 184.661 69.3987 185.482 69.868C186.304 70.308 186.964 70.9387 187.462 71.76C187.961 72.5813 188.21 73.652 188.21 74.972V86.676C188.21 87.556 188.254 88.2013 188.342 88.612C188.46 89.0227 188.812 89.228 189.398 89.228C189.721 89.228 190.102 89.1547 190.542 89.008V91.912ZM184.47 80.252C184.001 80.604 183.385 80.868 182.622 81.044C181.86 81.1907 181.053 81.3227 180.202 81.44C179.381 81.528 178.545 81.6453 177.694 81.792C176.844 81.9093 176.081 82.1147 175.406 82.408C174.732 82.7013 174.174 83.1267 173.734 83.684C173.324 84.212 173.118 84.9453 173.118 85.884C173.118 86.5 173.236 87.028 173.47 87.468C173.734 87.8787 174.057 88.216 174.438 88.48C174.849 88.744 175.318 88.9347 175.846 89.052C176.374 89.1693 176.932 89.228 177.518 89.228C178.75 89.228 179.806 89.0667 180.686 88.744C181.566 88.392 182.285 87.9667 182.842 87.468C183.4 86.94 183.81 86.3827 184.074 85.796C184.338 85.18 184.47 84.608 184.47 84.08V80.252ZM193.891 69.252H197.411V74.048H197.499C198.408 72.2 199.523 70.836 200.843 69.956C202.163 69.076 203.835 68.6653 205.859 68.724V72.684C204.363 72.684 203.087 72.8893 202.031 73.3C200.975 73.7107 200.124 74.312 199.479 75.104C198.834 75.896 198.364 76.864 198.071 78.008C197.778 79.1227 197.631 80.4133 197.631 81.88V92H193.891V69.252ZM210.63 80.824C210.63 81.88 210.762 82.9213 211.026 83.948C211.319 84.9453 211.745 85.84 212.302 86.632C212.889 87.424 213.622 88.0547 214.502 88.524C215.411 88.9933 216.467 89.228 217.67 89.228C218.931 89.228 220.002 88.9787 220.882 88.48C221.762 87.9813 222.481 87.336 223.038 86.544C223.595 85.7227 223.991 84.7987 224.226 83.772C224.49 82.7453 224.622 81.704 224.622 80.648C224.622 79.5333 224.49 78.4627 224.226 77.436C223.962 76.38 223.537 75.456 222.95 74.664C222.393 73.872 221.659 73.2413 220.75 72.772C219.841 72.2733 218.741 72.024 217.45 72.024C216.189 72.024 215.118 72.2733 214.238 72.772C213.358 73.2707 212.654 73.9307 212.126 74.752C211.598 75.5733 211.217 76.512 210.982 77.568C210.747 78.624 210.63 79.7093 210.63 80.824ZM228.23 92H224.49V88.92H224.402C223.786 90.1813 222.818 91.0907 221.498 91.648C220.178 92.2053 218.726 92.484 217.142 92.484C215.382 92.484 213.842 92.1613 212.522 91.516C211.231 90.8707 210.146 90.0053 209.266 88.92C208.415 87.8347 207.77 86.5733 207.33 85.136C206.89 83.6987 206.67 82.1733 206.67 80.56C206.67 78.9467 206.875 77.4213 207.286 75.984C207.726 74.5467 208.371 73.3 209.222 72.244C210.102 71.1587 211.187 70.308 212.478 69.692C213.798 69.0467 215.323 68.724 217.054 68.724C217.641 68.724 218.271 68.7827 218.946 68.9C219.621 69.0173 220.295 69.2227 220.97 69.516C221.645 69.78 222.275 70.1467 222.862 70.616C223.478 71.056 223.991 71.6133 224.402 72.288H224.49V60.584H228.23V92ZM234.512 60.584H257.128V65.336H240.012V73.564H255.852V78.052H240.012V87.248H257.436V92H234.512V60.584ZM286.676 60.584H309.292V65.336H292.176V73.564H308.016V78.052H292.176V87.248H309.6V92H286.676V60.584Z"/>
<path d="M281.631 92H260.599C260.628 89.448 261.244 87.2187 262.447 85.312C263.649 83.4053 265.292 81.748 267.375 80.34C268.372 79.6067 269.413 78.9027 270.499 78.228C271.584 77.524 272.581 76.776 273.491 75.984C274.4 75.192 275.148 74.3413 275.735 73.432C276.321 72.4933 276.629 71.4227 276.659 70.22C276.659 69.6627 276.585 69.076 276.439 68.46C276.321 67.8147 276.072 67.228 275.691 66.7C275.309 66.1427 274.781 65.688 274.107 65.336C273.432 64.9547 272.552 64.764 271.467 64.764C270.469 64.764 269.633 64.9693 268.959 65.38C268.313 65.7613 267.785 66.304 267.375 67.008C266.993 67.6827 266.7 68.4893 266.495 69.428C266.319 70.3667 266.216 71.3787 266.187 72.464H261.171C261.171 70.7627 261.391 69.1933 261.831 67.756C262.3 66.2893 262.989 65.028 263.899 63.972C264.808 62.916 265.908 62.0947 267.199 61.508C268.519 60.892 270.044 60.584 271.775 60.584C273.652 60.584 275.221 60.892 276.483 61.508C277.744 62.124 278.756 62.9013 279.519 63.84C280.311 64.7787 280.868 65.8053 281.191 66.92C281.513 68.0053 281.675 69.0467 281.675 70.044C281.675 71.276 281.484 72.3907 281.103 73.388C280.721 74.3853 280.208 75.3093 279.563 76.16C278.917 76.9813 278.184 77.744 277.363 78.448C276.541 79.152 275.691 79.812 274.811 80.428C273.931 81.044 273.051 81.6307 272.171 82.188C271.291 82.7453 270.469 83.3027 269.707 83.86C268.973 84.4173 268.328 85.004 267.771 85.62C267.213 86.2067 266.832 86.8373 266.627 87.512H281.631V92Z"/>
</mask>
<path d="M72.604 69.78C72.3693 67.5213 71.548 65.8933 70.14 64.896C68.7613 63.8693 66.9867 63.356 64.816 63.356C63.936 63.356 63.0707 63.444 62.22 63.62C61.3693 63.796 60.6067 64.0893 59.932 64.5C59.2867 64.9107 58.7587 65.468 58.348 66.172C57.9667 66.8467 57.776 67.6973 57.776 68.724C57.776 69.692 58.0547 70.484 58.612 71.1C59.1987 71.6867 59.9613 72.1707 60.9 72.552C61.868 72.9333 62.9533 73.256 64.156 73.52C65.3587 73.7547 66.576 74.0187 67.808 74.312C69.0693 74.6053 70.3013 74.9573 71.504 75.368C72.7067 75.7493 73.7773 76.2773 74.716 76.952C75.684 77.6267 76.4467 78.4773 77.004 79.504C77.5907 80.5307 77.884 81.8213 77.884 83.376C77.884 85.048 77.5027 86.4853 76.74 87.688C76.0067 88.8613 75.0533 89.8293 73.88 90.592C72.7067 91.3253 71.3867 91.8533 69.92 92.176C68.4827 92.528 67.0453 92.704 65.608 92.704C63.848 92.704 62.176 92.484 60.592 92.044C59.0373 91.604 57.6587 90.944 56.456 90.064C55.2827 89.1547 54.344 88.0107 53.64 86.632C52.9653 85.224 52.628 83.5667 52.628 81.66H56.588C56.588 82.98 56.8373 84.124 57.336 85.092C57.864 86.0307 58.5387 86.808 59.36 87.424C60.2107 88.04 61.1933 88.4947 62.308 88.788C63.4227 89.0813 64.5667 89.228 65.74 89.228C66.6787 89.228 67.6173 89.14 68.556 88.964C69.524 88.788 70.3893 88.4947 71.152 88.084C71.9147 87.644 72.5307 87.0573 73 86.324C73.4693 85.5907 73.704 84.652 73.704 83.508C73.704 82.4227 73.4107 81.5427 72.824 80.868C72.2667 80.1933 71.504 79.6507 70.536 79.24C69.5973 78.8 68.5267 78.448 67.324 78.184C66.1213 77.92 64.8893 77.656 63.628 77.392C62.396 77.0987 61.1787 76.776 59.976 76.424C58.7733 76.0427 57.688 75.5587 56.72 74.972C55.7813 74.356 55.0187 73.5787 54.432 72.64C53.8747 71.672 53.596 70.4693 53.596 69.032C53.596 67.448 53.9187 66.084 54.564 64.94C55.2093 63.7667 56.06 62.8133 57.116 62.08C58.2013 61.3173 59.4187 60.76 60.768 60.408C62.1467 60.0267 63.5547 59.836 64.992 59.836C66.6053 59.836 68.1013 60.0267 69.48 60.408C70.8587 60.7893 72.0613 61.3907 73.088 62.212C74.144 63.0333 74.9653 64.0747 75.552 65.336C76.168 66.568 76.5053 68.0493 76.564 69.78H72.604ZM87.5393 69.252H92.0713V72.552H87.5393V86.676C87.5393 87.116 87.5686 87.468 87.6273 87.732C87.7153 87.996 87.8619 88.2013 88.0673 88.348C88.2726 88.4947 88.5513 88.5973 88.9033 88.656C89.2846 88.6853 89.7686 88.7 90.3553 88.7H92.0713V92H89.2113C88.2433 92 87.4073 91.9413 86.7033 91.824C86.0286 91.6773 85.4713 91.428 85.0312 91.076C84.6206 90.724 84.3126 90.2253 84.1073 89.58C83.9019 88.9347 83.7993 88.084 83.7993 87.028V72.552H79.9273V69.252H83.7993V62.432H87.5393V69.252ZM116.378 91.912C115.733 92.2933 114.838 92.484 113.694 92.484C112.726 92.484 111.949 92.22 111.362 91.692C110.805 91.1347 110.526 90.24 110.526 89.008C109.499 90.24 108.297 91.1347 106.918 91.692C105.569 92.22 104.102 92.484 102.518 92.484C101.491 92.484 100.509 92.3667 99.5702 92.132C98.6608 91.8973 97.8688 91.5307 97.1942 91.032C96.5195 90.5333 95.9768 89.888 95.5662 89.096C95.1848 88.2747 94.9942 87.292 94.9942 86.148C94.9942 84.8573 95.2142 83.8013 95.6542 82.98C96.0942 82.1587 96.6662 81.4987 97.3702 81C98.1035 80.472 98.9248 80.076 99.8342 79.812C100.773 79.548 101.726 79.328 102.694 79.152C103.721 78.9467 104.689 78.8 105.598 78.712C106.537 78.5947 107.358 78.448 108.062 78.272C108.766 78.0667 109.323 77.788 109.734 77.436C110.145 77.0547 110.35 76.512 110.35 75.808C110.35 74.9867 110.189 74.3267 109.866 73.828C109.573 73.3293 109.177 72.948 108.678 72.684C108.209 72.42 107.666 72.244 107.05 72.156C106.463 72.068 105.877 72.024 105.29 72.024C103.706 72.024 102.386 72.332 101.33 72.948C100.274 73.5347 99.7022 74.664 99.6142 76.336H95.8742C95.9328 74.928 96.2262 73.74 96.7542 72.772C97.2822 71.804 97.9862 71.0267 98.8662 70.44C99.7462 69.824 100.743 69.384 101.858 69.12C103.002 68.856 104.219 68.724 105.51 68.724C106.537 68.724 107.549 68.7973 108.546 68.944C109.573 69.0907 110.497 69.3987 111.318 69.868C112.139 70.308 112.799 70.9387 113.298 71.76C113.797 72.5813 114.046 73.652 114.046 74.972V86.676C114.046 87.556 114.09 88.2013 114.178 88.612C114.295 89.0227 114.647 89.228 115.234 89.228C115.557 89.228 115.938 89.1547 116.378 89.008V91.912ZM110.306 80.252C109.837 80.604 109.221 80.868 108.458 81.044C107.695 81.1907 106.889 81.3227 106.038 81.44C105.217 81.528 104.381 81.6453 103.53 81.792C102.679 81.9093 101.917 82.1147 101.242 82.408C100.567 82.7013 100.01 83.1267 99.5702 83.684C99.1595 84.212 98.9542 84.9453 98.9542 85.884C98.9542 86.5 99.0715 87.028 99.3062 87.468C99.5702 87.8787 99.8928 88.216 100.274 88.48C100.685 88.744 101.154 88.9347 101.682 89.052C102.21 89.1693 102.767 89.228 103.354 89.228C104.586 89.228 105.642 89.0667 106.522 88.744C107.402 88.392 108.121 87.9667 108.678 87.468C109.235 86.94 109.646 86.3827 109.91 85.796C110.174 85.18 110.306 84.608 110.306 84.08V80.252ZM119.859 69.252H123.379V72.86H123.467C125.022 70.1027 127.486 68.724 130.859 68.724C132.355 68.724 133.602 68.9293 134.599 69.34C135.596 69.7507 136.403 70.3227 137.019 71.056C137.635 71.7893 138.06 72.6693 138.295 73.696C138.559 74.6933 138.691 75.808 138.691 77.04V92H134.951V76.6C134.951 75.192 134.54 74.0773 133.719 73.256C132.898 72.4347 131.768 72.024 130.331 72.024C129.187 72.024 128.19 72.2 127.339 72.552C126.518 72.904 125.828 73.4027 125.271 74.048C124.714 74.6933 124.288 75.456 123.995 76.336C123.731 77.1867 123.599 78.1253 123.599 79.152V92H119.859V69.252ZM147.036 80.824C147.036 81.88 147.168 82.9213 147.432 83.948C147.726 84.9453 148.151 85.84 148.708 86.632C149.295 87.424 150.028 88.0547 150.908 88.524C151.818 88.9933 152.874 89.228 154.076 89.228C155.338 89.228 156.408 88.9787 157.288 88.48C158.168 87.9813 158.887 87.336 159.444 86.544C160.002 85.7227 160.398 84.7987 160.632 83.772C160.896 82.7453 161.028 81.704 161.028 80.648C161.028 79.5333 160.896 78.4627 160.632 77.436C160.368 76.38 159.943 75.456 159.356 74.664C158.799 73.872 158.066 73.2413 157.156 72.772C156.247 72.2733 155.147 72.024 153.856 72.024C152.595 72.024 151.524 72.2733 150.644 72.772C149.764 73.2707 149.06 73.9307 148.532 74.752C148.004 75.5733 147.623 76.512 147.388 77.568C147.154 78.624 147.036 79.7093 147.036 80.824ZM164.636 92H160.896V88.92H160.808C160.192 90.1813 159.224 91.0907 157.904 91.648C156.584 92.2053 155.132 92.484 153.548 92.484C151.788 92.484 150.248 92.1613 148.928 91.516C147.638 90.8707 146.552 90.0053 145.672 88.92C144.822 87.8347 144.176 86.5733 143.736 85.136C143.296 83.6987 143.076 82.1733 143.076 80.56C143.076 78.9467 143.282 77.4213 143.692 75.984C144.132 74.5467 144.778 73.3 145.628 72.244C146.508 71.1587 147.594 70.308 148.884 69.692C150.204 69.0467 151.73 68.724 153.46 68.724C154.047 68.724 154.678 68.7827 155.352 68.9C156.027 69.0173 156.702 69.2227 157.376 69.516C158.051 69.78 158.682 70.1467 159.268 70.616C159.884 71.056 160.398 71.6133 160.808 72.288H160.896V60.584H164.636V92ZM190.542 91.912C189.897 92.2933 189.002 92.484 187.858 92.484C186.89 92.484 186.113 92.22 185.526 91.692C184.969 91.1347 184.69 90.24 184.69 89.008C183.664 90.24 182.461 91.1347 181.082 91.692C179.733 92.22 178.266 92.484 176.682 92.484C175.656 92.484 174.673 92.3667 173.734 92.132C172.825 91.8973 172.033 91.5307 171.358 91.032C170.684 90.5333 170.141 89.888 169.73 89.096C169.349 88.2747 169.158 87.292 169.158 86.148C169.158 84.8573 169.378 83.8013 169.818 82.98C170.258 82.1587 170.83 81.4987 171.534 81C172.268 80.472 173.089 80.076 173.998 79.812C174.937 79.548 175.89 79.328 176.858 79.152C177.885 78.9467 178.853 78.8 179.762 78.712C180.701 78.5947 181.522 78.448 182.226 78.272C182.93 78.0667 183.488 77.788 183.898 77.436C184.309 77.0547 184.514 76.512 184.514 75.808C184.514 74.9867 184.353 74.3267 184.03 73.828C183.737 73.3293 183.341 72.948 182.842 72.684C182.373 72.42 181.83 72.244 181.214 72.156C180.628 72.068 180.041 72.024 179.454 72.024C177.87 72.024 176.55 72.332 175.494 72.948C174.438 73.5347 173.866 74.664 173.778 76.336H170.038C170.097 74.928 170.39 73.74 170.918 72.772C171.446 71.804 172.15 71.0267 173.03 70.44C173.91 69.824 174.908 69.384 176.022 69.12C177.166 68.856 178.384 68.724 179.674 68.724C180.701 68.724 181.713 68.7973 182.71 68.944C183.737 69.0907 184.661 69.3987 185.482 69.868C186.304 70.308 186.964 70.9387 187.462 71.76C187.961 72.5813 188.21 73.652 188.21 74.972V86.676C188.21 87.556 188.254 88.2013 188.342 88.612C188.46 89.0227 188.812 89.228 189.398 89.228C189.721 89.228 190.102 89.1547 190.542 89.008V91.912ZM184.47 80.252C184.001 80.604 183.385 80.868 182.622 81.044C181.86 81.1907 181.053 81.3227 180.202 81.44C179.381 81.528 178.545 81.6453 177.694 81.792C176.844 81.9093 176.081 82.1147 175.406 82.408C174.732 82.7013 174.174 83.1267 173.734 83.684C173.324 84.212 173.118 84.9453 173.118 85.884C173.118 86.5 173.236 87.028 173.47 87.468C173.734 87.8787 174.057 88.216 174.438 88.48C174.849 88.744 175.318 88.9347 175.846 89.052C176.374 89.1693 176.932 89.228 177.518 89.228C178.75 89.228 179.806 89.0667 180.686 88.744C181.566 88.392 182.285 87.9667 182.842 87.468C183.4 86.94 183.81 86.3827 184.074 85.796C184.338 85.18 184.47 84.608 184.47 84.08V80.252ZM193.891 69.252H197.411V74.048H197.499C198.408 72.2 199.523 70.836 200.843 69.956C202.163 69.076 203.835 68.6653 205.859 68.724V72.684C204.363 72.684 203.087 72.8893 202.031 73.3C200.975 73.7107 200.124 74.312 199.479 75.104C198.834 75.896 198.364 76.864 198.071 78.008C197.778 79.1227 197.631 80.4133 197.631 81.88V92H193.891V69.252ZM210.63 80.824C210.63 81.88 210.762 82.9213 211.026 83.948C211.319 84.9453 211.745 85.84 212.302 86.632C212.889 87.424 213.622 88.0547 214.502 88.524C215.411 88.9933 216.467 89.228 217.67 89.228C218.931 89.228 220.002 88.9787 220.882 88.48C221.762 87.9813 222.481 87.336 223.038 86.544C223.595 85.7227 223.991 84.7987 224.226 83.772C224.49 82.7453 224.622 81.704 224.622 80.648C224.622 79.5333 224.49 78.4627 224.226 77.436C223.962 76.38 223.537 75.456 222.95 74.664C222.393 73.872 221.659 73.2413 220.75 72.772C219.841 72.2733 218.741 72.024 217.45 72.024C216.189 72.024 215.118 72.2733 214.238 72.772C213.358 73.2707 212.654 73.9307 212.126 74.752C211.598 75.5733 211.217 76.512 210.982 77.568C210.747 78.624 210.63 79.7093 210.63 80.824ZM228.23 92H224.49V88.92H224.402C223.786 90.1813 222.818 91.0907 221.498 91.648C220.178 92.2053 218.726 92.484 217.142 92.484C215.382 92.484 213.842 92.1613 212.522 91.516C211.231 90.8707 210.146 90.0053 209.266 88.92C208.415 87.8347 207.77 86.5733 207.33 85.136C206.89 83.6987 206.67 82.1733 206.67 80.56C206.67 78.9467 206.875 77.4213 207.286 75.984C207.726 74.5467 208.371 73.3 209.222 72.244C210.102 71.1587 211.187 70.308 212.478 69.692C213.798 69.0467 215.323 68.724 217.054 68.724C217.641 68.724 218.271 68.7827 218.946 68.9C219.621 69.0173 220.295 69.2227 220.97 69.516C221.645 69.78 222.275 70.1467 222.862 70.616C223.478 71.056 223.991 71.6133 224.402 72.288H224.49V60.584H228.23V92ZM234.512 60.584H257.128V65.336H240.012V73.564H255.852V78.052H240.012V87.248H257.436V92H234.512V60.584ZM286.676 60.584H309.292V65.336H292.176V73.564H308.016V78.052H292.176V87.248H309.6V92H286.676V60.584Z" fill="white"/>
<path d="M281.631 92H260.599C260.628 89.448 261.244 87.2187 262.447 85.312C263.649 83.4053 265.292 81.748 267.375 80.34C268.372 79.6067 269.413 78.9027 270.499 78.228C271.584 77.524 272.581 76.776 273.491 75.984C274.4 75.192 275.148 74.3413 275.735 73.432C276.321 72.4933 276.629 71.4227 276.659 70.22C276.659 69.6627 276.585 69.076 276.439 68.46C276.321 67.8147 276.072 67.228 275.691 66.7C275.309 66.1427 274.781 65.688 274.107 65.336C273.432 64.9547 272.552 64.764 271.467 64.764C270.469 64.764 269.633 64.9693 268.959 65.38C268.313 65.7613 267.785 66.304 267.375 67.008C266.993 67.6827 266.7 68.4893 266.495 69.428C266.319 70.3667 266.216 71.3787 266.187 72.464H261.171C261.171 70.7627 261.391 69.1933 261.831 67.756C262.3 66.2893 262.989 65.028 263.899 63.972C264.808 62.916 265.908 62.0947 267.199 61.508C268.519 60.892 270.044 60.584 271.775 60.584C273.652 60.584 275.221 60.892 276.483 61.508C277.744 62.124 278.756 62.9013 279.519 63.84C280.311 64.7787 280.868 65.8053 281.191 66.92C281.513 68.0053 281.675 69.0467 281.675 70.044C281.675 71.276 281.484 72.3907 281.103 73.388C280.721 74.3853 280.208 75.3093 279.563 76.16C278.917 76.9813 278.184 77.744 277.363 78.448C276.541 79.152 275.691 79.812 274.811 80.428C273.931 81.044 273.051 81.6307 272.171 82.188C271.291 82.7453 270.469 83.3027 269.707 83.86C268.973 84.4173 268.328 85.004 267.771 85.62C267.213 86.2067 266.832 86.8373 266.627 87.512H281.631V92Z" fill="#98DB2C"/>
<path d="M72.604 69.78L70.6147 69.9867L70.801 71.78H72.604V69.78ZM70.14 64.896L68.9455 66.5001L68.9646 66.5143L68.984 66.528L70.14 64.896ZM62.22 63.62L62.6252 65.5785L62.6252 65.5785L62.22 63.62ZM59.932 64.5L58.8921 62.7916L58.8751 62.802L58.8582 62.8127L59.932 64.5ZM58.348 66.172L56.6204 65.1643L56.6136 65.176L56.6069 65.1879L58.348 66.172ZM58.612 71.1L57.1289 72.4418L57.1625 72.4789L57.1978 72.5142L58.612 71.1ZM60.9 72.552L60.1472 74.4049L60.1571 74.4089L60.167 74.4128L60.9 72.552ZM64.156 73.52L63.7272 75.4735L63.75 75.4785L63.773 75.483L64.156 73.52ZM67.808 74.312L67.3448 76.2576L67.355 76.26L67.808 74.312ZM71.504 75.368L70.8577 77.2607L70.8785 77.2678L70.8995 77.2745L71.504 75.368ZM74.716 76.952L73.5487 78.576L73.5605 78.5845L73.5724 78.5928L74.716 76.952ZM77.004 79.504L75.2463 80.4582L75.2567 80.4773L75.2675 80.4963L77.004 79.504ZM76.74 87.688L75.0509 86.6169L75.044 86.628L76.74 87.688ZM73.88 90.592L74.94 92.288L74.9551 92.2786L74.97 92.2689L73.88 90.592ZM69.92 92.176L69.4903 90.2227L69.4672 90.2278L69.4443 90.2334L69.92 92.176ZM60.592 92.044L60.0473 93.9684L60.0567 93.971L60.592 92.044ZM56.456 90.064L55.2309 91.6448L55.2527 91.6617L55.275 91.6781L56.456 90.064ZM53.64 86.632L51.8364 87.4962L51.8473 87.519L51.8588 87.5416L53.64 86.632ZM52.628 81.66V79.66H50.628V81.66H52.628ZM56.588 81.66H58.588V79.66H56.588V81.66ZM57.336 85.092L55.5581 86.0079L55.5749 86.0405L55.5928 86.0725L57.336 85.092ZM59.36 87.424L58.16 89.024L58.1734 89.0341L58.187 89.0439L59.36 87.424ZM62.308 88.788L61.799 90.7221L62.308 88.788ZM68.556 88.964L68.1982 86.9962L68.1874 86.9983L68.556 88.964ZM71.152 88.084L72.1002 89.8449L72.126 89.831L72.1514 89.8164L71.152 88.084ZM73 86.324L71.3155 85.2459L71.3155 85.2459L73 86.324ZM72.824 80.868L71.2821 82.1418L71.2982 82.1613L71.3148 82.1804L72.824 80.868ZM70.536 79.24L69.6871 81.0509L69.7207 81.0667L69.7549 81.0812L70.536 79.24ZM63.628 77.392L63.1648 79.3376L63.1914 79.344L63.2183 79.3496L63.628 77.392ZM59.976 76.424L59.3715 78.3305L59.3928 78.3372L59.4142 78.3435L59.976 76.424ZM56.72 74.972L55.6227 76.6441L55.6527 76.6638L55.6834 76.6824L56.72 74.972ZM54.432 72.64L52.6988 73.6379L52.7168 73.6693L52.736 73.7L54.432 72.64ZM54.564 64.94L56.306 65.9226L56.3112 65.9133L56.3164 65.9038L54.564 64.94ZM57.116 62.08L58.2568 63.7228L58.2659 63.7164L57.116 62.08ZM60.768 60.408L61.2728 62.3432L61.287 62.3395L61.3012 62.3356L60.768 60.408ZM69.48 60.408L70.0132 58.4804L70.0132 58.4804L69.48 60.408ZM73.088 62.212L71.8386 63.7737L71.8493 63.7823L71.8601 63.7907L73.088 62.212ZM75.552 65.336L73.7386 66.1795L73.7505 66.2051L73.7631 66.2304L75.552 65.336ZM76.564 69.78V71.78H78.6329L78.5629 69.7122L76.564 69.78ZM72.604 69.78L74.5933 69.5733C74.319 66.9337 73.3115 64.6916 71.296 63.2639L70.14 64.896L68.984 66.528C69.7845 67.0951 70.4196 68.109 70.6147 69.9867L72.604 69.78ZM70.14 64.896L71.3345 63.2919C69.529 61.9474 67.3027 61.356 64.816 61.356V63.356V65.356C66.6706 65.356 67.9936 65.7913 68.9455 66.5001L70.14 64.896ZM64.816 63.356V61.356C63.8017 61.356 62.8005 61.4575 61.8148 61.6615L62.22 63.62L62.6252 65.5785C63.3408 65.4305 64.0703 65.356 64.816 65.356V63.356ZM62.22 63.62L61.8148 61.6615C60.7621 61.8793 59.781 62.2505 58.8921 62.7916L59.932 64.5L60.9719 66.2084C61.4323 65.9281 61.9765 65.7127 62.6252 65.5785L62.22 63.62ZM59.932 64.5L58.8582 62.8127C57.9264 63.4057 57.181 64.2034 56.6204 65.1643L58.348 66.172L60.0756 67.1797C60.3364 66.7326 60.6469 66.4157 61.0058 66.1873L59.932 64.5ZM58.348 66.172L56.6069 65.1879C56.0095 66.2448 55.776 67.4608 55.776 68.724H57.776H59.776C59.776 67.9339 59.9238 67.4485 60.0891 67.1561L58.348 66.172ZM57.776 68.724H55.776C55.776 70.1007 56.1847 71.3982 57.1289 72.4418L58.612 71.1L60.0951 69.7582C59.9246 69.5698 59.776 69.2833 59.776 68.724H57.776ZM58.612 71.1L57.1978 72.5142C58.0103 73.3267 59.0143 73.9447 60.1472 74.4049L60.9 72.552L61.6528 70.6991C60.9083 70.3966 60.3871 70.0466 60.0262 69.6858L58.612 71.1ZM60.9 72.552L60.167 74.4128C61.2497 74.8394 62.4391 75.1907 63.7272 75.4735L64.156 73.52L64.5848 71.5665C63.4676 71.3213 62.4863 71.0273 61.633 70.6912L60.9 72.552ZM64.156 73.52L63.773 75.483C64.9479 75.7122 66.1385 75.9704 67.3448 76.2576L67.808 74.312L68.2712 72.3664C67.0135 72.0669 65.7694 71.7971 64.539 71.557L64.156 73.52ZM67.808 74.312L67.355 76.26C68.5522 76.5384 69.7197 76.8721 70.8577 77.2607L71.504 75.368L72.1503 73.4753C70.883 73.0426 69.5864 72.6722 68.261 72.364L67.808 74.312ZM71.504 75.368L70.8995 77.2745C71.9192 77.5978 72.7965 78.0354 73.5487 78.576L74.716 76.952L75.8833 75.328C74.7582 74.5193 73.4942 73.9009 72.1085 73.4615L71.504 75.368ZM74.716 76.952L73.5724 78.5928C74.2877 79.0914 74.839 79.7079 75.2463 80.4582L77.004 79.504L78.7617 78.5498C78.0543 77.2468 77.0803 76.162 75.8596 75.3112L74.716 76.952ZM77.004 79.504L75.2675 80.4963C75.6355 81.1402 75.884 82.063 75.884 83.376H77.884H79.884C79.884 81.5796 79.5459 79.9212 78.7405 78.5117L77.004 79.504ZM77.884 83.376H75.884C75.884 84.7358 75.5773 85.7869 75.051 86.6169L76.74 87.688L78.429 88.7591C79.428 87.1838 79.884 85.3602 79.884 83.376H77.884ZM76.74 87.688L75.044 86.628C74.4671 87.5511 73.7217 88.3095 72.79 88.9151L73.88 90.592L74.97 92.2689C76.385 91.3491 77.5463 90.1716 78.436 88.748L76.74 87.688ZM73.88 90.592L72.82 88.896C71.8564 89.4983 70.7528 89.945 69.4903 90.2227L69.92 92.176L70.3497 94.1293C72.0206 93.7617 73.5569 93.1524 74.94 92.288L73.88 90.592ZM69.92 92.176L69.4443 90.2334C68.158 90.5484 66.8803 90.704 65.608 90.704V92.704V94.704C67.2103 94.704 68.8073 94.5076 70.3957 94.1186L69.92 92.176ZM65.608 92.704V90.704C64.0162 90.704 62.5251 90.5053 61.1273 90.117L60.592 92.044L60.0567 93.971C61.8269 94.4627 63.6798 94.704 65.608 94.704V92.704ZM60.592 92.044L61.1366 90.1196C59.7915 89.7389 58.6321 89.1781 57.637 88.4499L56.456 90.064L55.275 91.6781C56.6852 92.7099 58.2831 93.4691 60.0474 93.9684L60.592 92.044ZM56.456 90.064L57.6811 88.4832C56.7503 87.7617 55.9973 86.8507 55.4212 85.7224L53.64 86.632L51.8588 87.5416C52.6907 89.1706 53.8151 90.5476 55.2309 91.6448L56.456 90.064ZM53.64 86.632L55.4436 85.7678C54.9236 84.6825 54.628 83.3325 54.628 81.66H52.628H50.628C50.628 83.8009 51.007 85.7655 51.8364 87.4962L53.64 86.632ZM52.628 81.66V83.66H56.588V81.66V79.66H52.628V81.66ZM56.588 81.66H54.588C54.588 83.2318 54.8856 84.7027 55.5581 86.0079L57.336 85.092L59.1139 84.1761C58.789 83.5453 58.588 82.7282 58.588 81.66H56.588ZM57.336 85.092L55.5928 86.0725C56.2501 87.241 57.1057 88.2333 58.16 89.024L59.36 87.424L60.56 85.824C59.9716 85.3827 59.4779 84.8203 59.0792 84.1115L57.336 85.092ZM59.36 87.424L58.187 89.0439C59.2563 89.8182 60.4688 90.3721 61.799 90.7221L62.308 88.788L62.817 86.8539C61.9179 86.6172 61.165 86.2618 60.533 85.8041L59.36 87.424ZM62.308 88.788L61.799 90.7221C63.0828 91.06 64.398 91.228 65.74 91.228V89.228V87.228C64.7353 87.228 63.7625 87.1027 62.817 86.8539L62.308 88.788ZM65.74 89.228V91.228C66.8045 91.228 67.8665 91.1281 68.9246 90.9297L68.556 88.964L68.1874 86.9983C67.3682 87.1519 66.5529 87.228 65.74 87.228V89.228ZM68.556 88.964L68.9138 90.9317C70.0606 90.7232 71.1296 90.3676 72.1002 89.8449L71.152 88.084L70.2038 86.3231C69.6491 86.6218 68.9874 86.8528 68.1982 86.9963L68.556 88.964ZM71.152 88.084L72.1514 89.8164C73.1883 89.2182 74.0405 88.4084 74.6845 87.4021L73 86.324L71.3155 85.2459C71.0208 85.7063 70.641 86.0698 70.1526 86.3516L71.152 88.084ZM73 86.324L74.6845 87.4021C75.4152 86.2604 75.704 84.9164 75.704 83.508H73.704H71.704C71.704 84.3876 71.5234 84.9209 71.3155 85.2459L73 86.324ZM73.704 83.508H75.704C75.704 82.0481 75.3006 80.6681 74.3332 79.5556L72.824 80.868L71.3148 82.1804C71.5208 82.4172 71.704 82.7972 71.704 83.508H73.704ZM72.824 80.868L74.3659 79.5942C73.5669 78.627 72.5215 77.9098 71.3171 77.3988L70.536 79.24L69.7549 81.0812C70.4865 81.3916 70.9665 81.7597 71.2821 82.1418L72.824 80.868ZM70.536 79.24L71.3849 77.4291C70.2896 76.9157 69.0742 76.5206 67.7528 76.2305L67.324 78.184L66.8952 80.1375C67.9792 80.3754 68.905 80.6843 69.6871 81.0509L70.536 79.24ZM67.324 78.184L67.7528 76.2305C66.5435 75.9651 65.3051 75.6997 64.0377 75.4344L63.628 77.392L63.2183 79.3496C64.4735 79.6123 65.6992 79.8749 66.8952 80.1375L67.324 78.184ZM63.628 77.392L64.0912 75.4464C62.892 75.1608 61.7075 74.8469 60.5378 74.5045L59.976 76.424L59.4142 78.3435C60.6498 78.7051 61.9 79.0365 63.1648 79.3376L63.628 77.392ZM59.976 76.424L60.5805 74.5175C59.5121 74.1788 58.5744 73.7572 57.7566 73.2616L56.72 74.972L55.6834 76.6824C56.8016 77.3601 58.0346 77.9066 59.3715 78.3305L59.976 76.424ZM56.72 74.972L57.8173 73.2999C57.1165 72.84 56.5594 72.2702 56.128 71.58L54.432 72.64L52.736 73.7C53.4779 74.8871 54.4462 75.872 55.6227 76.6441L56.72 74.972ZM54.432 72.64L56.1652 71.6421C55.8259 71.0527 55.596 70.2174 55.596 69.032H53.596H51.596C51.596 70.7213 51.9234 72.2913 52.6988 73.6379L54.432 72.64ZM53.596 69.032H55.596C55.596 67.7216 55.8614 66.7107 56.306 65.9226L54.564 64.94L52.822 63.9574C51.9759 65.4573 51.596 67.1744 51.596 69.032H53.596ZM54.564 64.94L56.3164 65.9038C56.8194 64.9894 57.465 64.2726 58.2568 63.7227L57.116 62.08L55.9752 60.4373C54.655 61.354 53.5993 62.5439 52.8116 63.9762L54.564 64.94ZM57.116 62.08L58.2659 63.7164C59.1459 63.098 60.1427 62.6381 61.2728 62.3432L60.768 60.408L60.2632 58.4728C58.6947 58.8819 57.2568 59.5367 55.9661 60.4436L57.116 62.08ZM60.768 60.408L61.3012 62.3356C62.5053 62.0026 63.734 61.836 64.992 61.836V59.836V57.836C63.3754 57.836 61.788 58.0508 60.2348 58.4804L60.768 60.408ZM64.992 59.836V61.836C66.4478 61.836 67.7623 62.008 68.9468 62.3356L69.48 60.408L70.0132 58.4804C68.4403 58.0453 66.7629 57.836 64.992 57.836V59.836ZM69.48 60.408L68.9468 62.3356C70.0876 62.6512 71.0414 63.136 71.8386 63.7737L73.088 62.212L74.3374 60.6503C73.0812 59.6453 71.6297 58.9275 70.0132 58.4804L69.48 60.408ZM73.088 62.212L71.8601 63.7907C72.6552 64.4091 73.2804 65.1944 73.7386 66.1795L75.552 65.336L77.3654 64.4925C76.6503 62.9549 75.6328 61.6576 74.3159 60.6333L73.088 62.212ZM75.552 65.336L73.7631 66.2304C74.2219 67.1479 74.5138 68.3329 74.5651 69.8478L76.564 69.78L78.5629 69.7122C78.4969 67.7658 78.1141 65.9881 77.3409 64.4416L75.552 65.336ZM76.564 69.78V67.78H72.604V69.78V71.78H76.564V69.78ZM87.5393 69.252H85.5393V71.252H87.5393V69.252ZM92.0713 69.252H94.0713V67.252H92.0713V69.252ZM92.0713 72.552V74.552H94.0713V72.552H92.0713ZM87.5393 72.552V70.552H85.5393V72.552H87.5393ZM87.6273 87.732L85.6749 88.1659L85.6973 88.2666L85.7299 88.3645L87.6273 87.732ZM88.9033 88.656L88.5745 90.6288L88.6617 90.6433L88.7499 90.6501L88.9033 88.656ZM92.0713 88.7H94.0713V86.7H92.0713V88.7ZM92.0713 92V94H94.0713V92H92.0713ZM86.7033 91.824L86.2784 93.7784L86.3262 93.7887L86.3745 93.7968L86.7033 91.824ZM85.0312 91.076L83.7297 92.5945L83.7554 92.6166L83.7819 92.6377L85.0312 91.076ZM84.1073 89.58L82.2014 90.1864L82.2014 90.1864L84.1073 89.58ZM83.7993 72.552H85.7993V70.552H83.7993V72.552ZM79.9273 72.552H77.9273V74.552H79.9273V72.552ZM79.9273 69.252V67.252H77.9273V69.252H79.9273ZM83.7993 69.252V71.252H85.7993V69.252H83.7993ZM83.7993 62.432V60.432H81.7993V62.432H83.7993ZM87.5393 62.432H89.5393V60.432H87.5393V62.432ZM87.5393 69.252V71.252H92.0713V69.252V67.252H87.5393V69.252ZM92.0713 69.252H90.0713V72.552H92.0713H94.0713V69.252H92.0713ZM92.0713 72.552V70.552H87.5393V72.552V74.552H92.0713V72.552ZM87.5393 72.552H85.5393V86.676H87.5393H89.5393V72.552H87.5393ZM87.5393 86.676H85.5393C85.5393 87.1833 85.5711 87.699 85.6749 88.1659L87.6273 87.732L89.5796 87.2981C89.566 87.237 89.5393 87.0487 89.5393 86.676H87.5393ZM87.6273 87.732L85.7299 88.3645C85.9371 88.9861 86.3201 89.5578 86.9048 89.9755L88.0673 88.348L89.2297 86.7205C89.3067 86.7755 89.3758 86.8446 89.4307 86.9215C89.4845 86.9968 89.512 87.0617 89.5246 87.0995L87.6273 87.732ZM88.0673 88.348L86.9048 89.9755C87.4389 90.357 88.0383 90.5394 88.5745 90.6288L88.9033 88.656L89.232 86.6832C89.1949 86.677 89.1674 86.6709 89.1487 86.6661C89.1299 86.6613 89.1214 86.6582 89.1217 86.6583C89.1219 86.6584 89.1325 86.6623 89.1509 86.6718C89.1695 86.6814 89.1967 86.697 89.2297 86.7205L88.0673 88.348ZM88.9033 88.656L88.7499 90.6501C89.2015 90.6848 89.7413 90.7 90.3553 90.7V88.7V86.7C89.7959 86.7 89.3677 86.6858 89.0566 86.6619L88.9033 88.656ZM90.3553 88.7V90.7H92.0713V88.7V86.7H90.3553V88.7ZM92.0713 88.7H90.0713V92H92.0713H94.0713V88.7H92.0713ZM92.0713 92V90H89.2113V92V94H92.0713V92ZM89.2113 92V90C88.3174 90 87.5969 89.9453 87.032 89.8512L86.7033 91.824L86.3745 93.7968C87.2176 93.9373 88.1691 94 89.2113 94V92ZM86.7033 91.824L87.1281 89.8696C86.6881 89.774 86.4316 89.635 86.2806 89.5143L85.0312 91.076L83.7819 92.6377C84.5109 93.221 85.369 93.5807 86.2784 93.7784L86.7033 91.824ZM85.0312 91.076L86.3328 89.5575C86.2677 89.5016 86.1339 89.3534 86.0131 88.9736L84.1073 89.58L82.2014 90.1864C82.4912 91.0973 82.9735 91.9464 83.7297 92.5945L85.0312 91.076ZM84.1073 89.58L86.0131 88.9736C85.8949 88.602 85.7993 87.9797 85.7993 87.028H83.7993H81.7993C81.7993 88.1883 81.909 89.2673 82.2014 90.1864L84.1073 89.58ZM83.7993 87.028H85.7993V72.552H83.7993H81.7993V87.028H83.7993ZM83.7993 72.552V70.552H79.9273V72.552V74.552H83.7993V72.552ZM79.9273 72.552H81.9273V69.252H79.9273H77.9273V72.552H79.9273ZM79.9273 69.252V71.252H83.7993V69.252V67.252H79.9273V69.252ZM83.7993 69.252H85.7993V62.432H83.7993H81.7993V69.252H83.7993ZM83.7993 62.432V64.432H87.5393V62.432V60.432H83.7993V62.432ZM87.5393 62.432H85.5393V69.252H87.5393H89.5393V62.432H87.5393ZM116.378 91.912L117.396 93.6339L118.378 93.0533V91.912H116.378ZM111.362 91.692L109.948 93.1062L109.985 93.1434L110.024 93.1786L111.362 91.692ZM110.526 89.008H112.526V83.4839L108.99 87.7276L110.526 89.008ZM106.918 91.692L107.647 93.5545L107.657 93.5504L107.668 93.5462L106.918 91.692ZM99.5702 92.132L99.0704 94.0686L99.0777 94.0704L99.0851 94.0723L99.5702 92.132ZM97.1942 91.032L98.3829 89.4236L98.3829 89.4236L97.1942 91.032ZM95.5662 89.096L93.7521 89.9382L93.7705 89.9778L93.7906 90.0166L95.5662 89.096ZM95.6542 82.98L93.8912 82.0356L93.8912 82.0356L95.6542 82.98ZM97.3702 81L98.5262 82.632L98.5325 82.6276L98.5388 82.6231L97.3702 81ZM99.8342 79.812L99.2927 77.8867L99.2846 77.889L99.2765 77.8913L99.8342 79.812ZM102.694 79.152L103.052 81.1197L103.069 81.1166L103.086 81.1132L102.694 79.152ZM105.598 78.712L105.791 80.7027L105.819 80.7L105.846 80.6966L105.598 78.712ZM108.062 78.272L108.547 80.2123L108.585 80.2029L108.622 80.192L108.062 78.272ZM109.734 77.436L111.036 78.9545L111.066 78.9286L111.095 78.9016L109.734 77.436ZM109.866 73.828L108.142 74.842L108.164 74.8787L108.187 74.9145L109.866 73.828ZM108.678 72.684L107.698 74.4271L107.72 74.4396L107.742 74.4516L108.678 72.684ZM107.05 72.156L106.753 74.1339L106.767 74.1359L107.05 72.156ZM101.33 72.948L102.301 74.6963L102.32 74.6861L102.338 74.6756L101.33 72.948ZM99.6142 76.336V78.336H101.512L101.611 76.4411L99.6142 76.336ZM95.8742 76.336L93.8759 76.2527L93.7891 78.336H95.8742V76.336ZM96.7542 72.772L98.5099 73.7297L98.5099 73.7297L96.7542 72.772ZM98.8662 70.44L99.9756 72.1041L99.9945 72.0915L100.013 72.0785L98.8662 70.44ZM101.858 69.12L101.408 67.1712L101.397 67.1738L101.858 69.12ZM108.546 68.944L108.255 70.9227L108.263 70.9239L108.546 68.944ZM111.318 69.868L110.326 71.6045L110.35 71.618L110.374 71.631L111.318 69.868ZM113.298 71.76L111.589 72.798L111.589 72.798L113.298 71.76ZM114.178 88.612L112.223 89.0311L112.237 89.0968L112.255 89.1614L114.178 88.612ZM116.378 89.008H118.378V86.2331L115.746 87.1106L116.378 89.008ZM110.306 80.252H112.306V76.252L109.106 78.652L110.306 80.252ZM108.458 81.044L108.836 83.008L108.872 83.0011L108.908 82.9928L108.458 81.044ZM106.038 81.44L106.251 83.4286L106.281 83.4254L106.311 83.4212L106.038 81.44ZM103.53 81.792L103.803 83.7732L103.837 83.7686L103.87 83.7629L103.53 81.792ZM99.5702 83.684L98.0004 82.4447L97.9959 82.4504L97.9915 82.4561L99.5702 83.684ZM99.3062 87.468L97.5415 88.4092L97.5798 88.481L97.6238 88.5495L99.3062 87.468ZM100.274 88.48L99.1357 90.1244L99.1639 90.1439L99.1926 90.1624L100.274 88.48ZM106.522 88.744L107.211 90.6218L107.238 90.6117L107.265 90.601L106.522 88.744ZM108.678 87.468L110.012 88.9585L110.033 88.9395L110.054 88.9199L108.678 87.468ZM109.91 85.796L111.734 86.6167L111.741 86.6003L111.748 86.5838L109.91 85.796ZM116.378 91.912L115.361 90.1901C115.145 90.3178 114.654 90.484 113.694 90.484V92.484V94.484C115.023 94.484 116.321 94.2689 117.396 93.6339L116.378 91.912ZM113.694 92.484V90.484C113.103 90.484 112.841 90.3322 112.7 90.2054L111.362 91.692L110.024 93.1786C111.057 94.1078 112.349 94.484 113.694 94.484V92.484ZM111.362 91.692L112.776 90.2778C112.759 90.2602 112.526 89.9998 112.526 89.008H110.526H108.526C108.526 90.4802 108.851 92.0091 109.948 93.1062L111.362 91.692ZM110.526 89.008L108.99 87.7276C108.157 88.7268 107.218 89.4136 106.169 89.8378L106.918 91.692L107.668 93.5462C109.376 92.8558 110.842 91.7532 112.063 90.2884L110.526 89.008ZM106.918 91.692L106.189 89.8295C105.093 90.2585 103.876 90.484 102.518 90.484V92.484V94.484C104.328 94.484 106.045 94.1815 107.647 93.5545L106.918 91.692ZM102.518 92.484V90.484C101.645 90.484 100.826 90.3844 100.055 90.1917L99.5702 92.132L99.0851 94.0723C100.192 94.349 101.338 94.484 102.518 94.484V92.484ZM99.5702 92.132L100.07 90.1954C99.3796 90.0173 98.8279 89.7525 98.3829 89.4236L97.1942 91.032L96.0054 92.6404C96.9098 93.3088 97.9421 93.7774 99.0704 94.0686L99.5702 92.132ZM97.1942 91.032L98.3829 89.4236C97.9692 89.1179 97.6209 88.7139 97.3417 88.1754L95.5662 89.096L93.7906 90.0166C94.3327 91.0621 95.0698 91.9488 96.0054 92.6404L97.1942 91.032ZM95.5662 89.096L97.3802 88.2538C97.1492 87.7562 96.9942 87.0753 96.9942 86.148H94.9942H92.9942C92.9942 87.5087 93.2205 88.7931 93.7521 89.9382L95.5662 89.096ZM94.9942 86.148H96.9942C96.9942 85.0665 97.1811 84.3651 97.4171 83.9244L95.6542 82.98L93.8912 82.0356C93.2472 83.2376 92.9942 84.6481 92.9942 86.148H94.9942ZM95.6542 82.98L97.4171 83.9244C97.7228 83.3539 98.0949 82.9375 98.5262 82.632L97.3702 81L96.2141 79.368C95.2374 80.0598 94.4656 80.9634 93.8912 82.0356L95.6542 82.98ZM97.3702 81L98.5388 82.6231C99.0782 82.2347 99.691 81.9361 100.392 81.7327L99.8342 79.812L99.2765 77.8913C98.1586 78.2159 97.1288 78.7093 96.2015 79.3769L97.3702 81ZM99.8342 79.812L100.376 81.7373C101.253 81.4905 102.145 81.2846 103.052 81.1197L102.694 79.152L102.336 77.1843C101.307 77.3714 100.292 77.6055 99.2927 77.8867L99.8342 79.812ZM102.694 79.152L103.086 81.1132C104.056 80.9192 104.957 80.7834 105.791 80.7027L105.598 78.712L105.406 76.7213C104.42 76.8166 103.385 76.9742 102.302 77.1908L102.694 79.152ZM105.598 78.712L105.846 80.6966C106.842 80.5721 107.746 80.4126 108.547 80.2123L108.062 78.272L107.577 76.3317C106.97 76.4834 106.231 76.6173 105.35 76.7274L105.598 78.712ZM108.062 78.272L108.622 80.192C109.507 79.9338 110.347 79.545 111.036 78.9545L109.734 77.436L108.433 75.9175C108.3 76.031 108.025 76.1995 107.502 76.352L108.062 78.272ZM109.734 77.436L111.095 78.9016C112.013 78.0495 112.35 76.9161 112.35 75.808H110.35H108.35C108.35 75.9683 108.327 76.0326 108.326 76.0352C108.325 76.036 108.329 76.026 108.34 76.0103C108.35 75.9945 108.362 75.9805 108.373 75.9704L109.734 77.436ZM110.35 75.808H112.35C112.35 74.7435 112.143 73.6656 111.545 72.7415L109.866 73.828L108.187 74.9145C108.234 74.9877 108.35 75.2298 108.35 75.808H110.35ZM109.866 73.828L111.59 72.814C111.114 72.0045 110.449 71.3583 109.614 70.9164L108.678 72.684L107.742 74.4516C107.905 74.5377 108.032 74.6542 108.142 74.842L109.866 73.828ZM108.678 72.684L109.659 70.9408C108.943 70.5381 108.157 70.2938 107.333 70.1761L107.05 72.156L106.767 74.1359C107.176 74.1942 107.475 74.3019 107.698 74.4271L108.678 72.684ZM107.05 72.156L107.347 70.1781C106.663 70.0756 105.977 70.024 105.29 70.024V72.024V74.024C105.776 74.024 106.264 74.0604 106.753 74.1339L107.05 72.156ZM105.29 72.024V70.024C103.454 70.024 101.762 70.3807 100.322 71.2204L101.33 72.948L102.338 74.6756C103.01 74.2833 103.958 74.024 105.29 74.024V72.024ZM101.33 72.948L100.359 71.1997C98.4823 72.2422 97.7257 74.1644 97.6169 76.2309L99.6142 76.336L101.611 76.4411C101.679 75.1636 102.066 74.8271 102.301 74.6963L101.33 72.948ZM99.6142 76.336V74.336H95.8742V76.336V78.336H99.6142V76.336ZM95.8742 76.336L97.8724 76.4193C97.9218 75.235 98.1637 74.3645 98.5099 73.7297L96.7542 72.772L94.9984 71.8143C94.2886 73.1155 93.9439 74.621 93.8759 76.2527L95.8742 76.336ZM96.7542 72.772L98.5099 73.7297C98.8897 73.0335 99.3767 72.5034 99.9756 72.1041L98.8662 70.44L97.7568 68.7759C96.5957 69.55 95.6746 70.5745 94.9984 71.8143L96.7542 72.772ZM98.8662 70.44L100.013 72.0785C100.672 71.6169 101.434 71.2758 102.319 71.0662L101.858 69.12L101.397 67.1738C100.053 67.4922 98.8198 68.0311 97.7192 68.8015L98.8662 70.44ZM101.858 69.12L102.308 71.0688C103.291 70.842 104.356 70.724 105.51 70.724V68.724V66.724C104.083 66.724 102.714 66.87 101.408 67.1712L101.858 69.12ZM105.51 68.724V70.724C106.441 70.724 107.356 70.7905 108.255 70.9227L108.546 68.944L108.837 66.9653C107.742 66.8042 106.632 66.724 105.51 66.724V68.724ZM108.546 68.944L108.263 70.9239C109.064 71.0383 109.744 71.2718 110.326 71.6045L111.318 69.868L112.31 68.1315C111.25 67.5255 110.081 67.143 108.829 66.9641L108.546 68.944ZM111.318 69.868L110.374 71.631C110.87 71.8966 111.269 72.2724 111.589 72.798L113.298 71.76L115.008 70.722C114.33 69.605 113.409 68.7194 112.263 68.105L111.318 69.868ZM113.298 71.76L111.589 72.798C111.839 73.2104 112.046 73.8866 112.046 74.972H114.046H116.046C116.046 73.4174 115.755 71.9522 115.008 70.722L113.298 71.76ZM114.046 74.972H112.046V86.676H114.046H116.046V74.972H114.046ZM114.046 86.676H112.046C112.046 87.5786 112.088 88.4018 112.223 89.0311L114.178 88.612L116.134 88.1929C116.093 88.0009 116.046 87.5334 116.046 86.676H114.046ZM114.178 88.612L112.255 89.1614C112.448 89.8365 112.878 90.4254 113.522 90.8016C114.11 91.1443 114.733 91.228 115.234 91.228V89.228V87.228C115.148 87.228 115.302 87.2091 115.538 87.3464C115.664 87.4201 115.793 87.5272 115.901 87.6694C116.008 87.8101 116.069 87.9503 116.101 88.0626L114.178 88.612ZM115.234 89.228V91.228C115.843 91.228 116.448 91.0929 117.011 90.9054L116.378 89.008L115.746 87.1106C115.428 87.2164 115.27 87.228 115.234 87.228V89.228ZM116.378 89.008H114.378V91.912H116.378H118.378V89.008H116.378ZM110.306 80.252L109.106 78.652C108.921 78.7908 108.586 78.962 108.008 79.0952L108.458 81.044L108.908 82.9928C109.856 82.774 110.753 82.4172 111.506 81.852L110.306 80.252ZM108.458 81.044L108.08 79.08C107.356 79.2193 106.584 79.3457 105.765 79.4588L106.038 81.44L106.311 83.4212C107.193 83.2996 108.035 83.162 108.836 83.008L108.458 81.044ZM106.038 81.44L105.825 79.4514C104.959 79.5441 104.081 79.6675 103.19 79.8211L103.53 81.792L103.87 83.7629C104.68 83.6232 105.474 83.5119 106.251 83.4286L106.038 81.44ZM103.53 81.792L103.257 79.8108C102.255 79.949 101.312 80.1969 100.445 80.5739L101.242 82.408L102.04 84.2421C102.522 84.0324 103.104 83.8697 103.803 83.7732L103.53 81.792ZM101.242 82.408L100.445 80.5739C99.4788 80.9938 98.6523 81.6189 98.0004 82.4447L99.5702 83.684L101.14 84.9233C101.368 84.6344 101.656 84.4088 102.04 84.2421L101.242 82.408ZM99.5702 83.684L97.9915 82.4561C97.2166 83.4524 96.9542 84.6762 96.9542 85.884H98.9542H100.954C100.954 85.2144 101.102 84.9716 101.149 84.9119L99.5702 83.684ZM98.9542 85.884H96.9542C96.9542 86.7522 97.1201 87.6191 97.5415 88.4092L99.3062 87.468L101.071 86.5268C101.023 86.4369 100.954 86.2478 100.954 85.884H98.9542ZM99.3062 87.468L97.6238 88.5495C98.0227 89.17 98.5265 89.7026 99.1357 90.1244L100.274 88.48L101.413 86.8356C101.259 86.7294 101.118 86.5874 100.989 86.3865L99.3062 87.468ZM100.274 88.48L99.1926 90.1624C99.8218 90.5668 100.515 90.8414 101.248 91.0044L101.682 89.052L102.116 87.0996C101.793 87.0279 101.548 86.9212 101.356 86.7976L100.274 88.48ZM101.682 89.052L101.248 91.0044C101.93 91.1559 102.634 91.228 103.354 91.228V89.228V87.228C102.901 87.228 102.49 87.1828 102.116 87.0996L101.682 89.052ZM103.354 89.228V91.228C104.751 91.228 106.053 91.0462 107.211 90.6218L106.522 88.744L105.834 86.8662C105.231 87.0871 104.421 87.228 103.354 87.228V89.228ZM106.522 88.744L107.265 90.601C108.306 90.1844 109.241 89.6482 110.012 88.9585L108.678 87.468L107.345 85.9775C107.001 86.2851 106.498 86.5996 105.779 86.887L106.522 88.744ZM108.678 87.468L110.054 88.9199C110.764 88.2467 111.345 87.4822 111.734 86.6167L109.91 85.796L108.086 84.9753C107.948 85.2831 107.707 85.6333 107.303 86.0161L108.678 87.468ZM109.91 85.796L111.748 86.5838C112.091 85.7834 112.306 84.9412 112.306 84.08H110.306H108.306C108.306 84.2748 108.257 84.5766 108.072 85.0082L109.91 85.796ZM110.306 84.08H112.306V80.252H110.306H108.306V84.08H110.306ZM119.859 69.252V67.252H117.859V69.252H119.859ZM123.379 69.252H125.379V67.252H123.379V69.252ZM123.379 72.86H121.379V74.86H123.379V72.86ZM123.467 72.86V74.86H124.635L125.209 73.8423L123.467 72.86ZM137.019 71.056L135.488 72.3424L135.488 72.3424L137.019 71.056ZM138.295 73.696L136.345 74.1416L136.353 74.1749L136.362 74.2078L138.295 73.696ZM138.691 92V94H140.691V92H138.691ZM134.951 92H132.951V94H134.951V92ZM133.719 73.256L132.305 74.6702L133.719 73.256ZM127.339 72.552L126.574 70.704L126.563 70.7088L126.551 70.7137L127.339 72.552ZM125.271 74.048L123.757 72.7408L123.757 72.7408L125.271 74.048ZM123.995 76.336L122.098 75.7035L122.091 75.7233L122.085 75.7432L123.995 76.336ZM123.599 92V94H125.599V92H123.599ZM119.859 92H117.859V94H119.859V92ZM119.859 69.252V71.252H123.379V69.252V67.252H119.859V69.252ZM123.379 69.252H121.379V72.86H123.379H125.379V69.252H123.379ZM123.379 72.86V74.86H123.467V72.86V70.86H123.379V72.86ZM123.467 72.86L125.209 73.8423C126.382 71.7629 128.149 70.724 130.859 70.724V68.724V66.724C126.822 66.724 123.662 68.4424 121.725 71.8777L123.467 72.86ZM130.859 68.724V70.724C132.188 70.724 133.156 70.9086 133.837 71.1894L134.599 69.34L135.36 67.4906C134.048 66.95 132.522 66.724 130.859 66.724V68.724ZM134.599 69.34L133.837 71.1894C134.575 71.4929 135.104 71.8858 135.488 72.3424L137.019 71.056L138.55 69.7696C137.702 68.7596 136.618 68.0084 135.36 67.4906L134.599 69.34ZM137.019 71.056L135.488 72.3424C135.88 72.8091 136.174 73.3931 136.345 74.1416L138.295 73.696L140.245 73.2504C139.946 71.9456 139.39 70.7695 138.55 69.7696L137.019 71.056ZM138.295 73.696L136.362 74.2078C136.574 75.0095 136.691 75.9484 136.691 77.04H138.691H140.691C140.691 75.6676 140.544 74.3772 140.228 73.1842L138.295 73.696ZM138.691 77.04H136.691V92H138.691H140.691V77.04H138.691ZM138.691 92V90H134.951V92V94H138.691V92ZM134.951 92H136.951V76.6H134.951H132.951V92H134.951ZM134.951 76.6H136.951C136.951 74.7816 136.407 73.1153 135.133 71.8418L133.719 73.256L132.305 74.6702C132.674 75.0393 132.951 75.6024 132.951 76.6H134.951ZM133.719 73.256L135.133 71.8418C133.852 70.5605 132.165 70.024 130.331 70.024V72.024V74.024C131.371 74.024 131.943 74.3088 132.305 74.6702L133.719 73.256ZM130.331 72.024V70.024C128.986 70.024 127.718 70.2305 126.574 70.704L127.339 72.552L128.104 74.4C128.661 74.1695 129.388 74.024 130.331 74.024V72.024ZM127.339 72.552L126.551 70.7137C125.464 71.1794 124.523 71.8545 123.757 72.7408L125.271 74.048L126.785 75.3552C127.134 74.9508 127.571 74.6286 128.127 74.3903L127.339 72.552ZM125.271 74.048L123.757 72.7408C123.015 73.6006 122.466 74.5976 122.098 75.7035L123.995 76.336L125.892 76.9685C126.11 76.3144 126.413 75.7861 126.785 75.3552L125.271 74.048ZM123.995 76.336L122.085 75.7432C121.753 76.8125 121.599 77.9544 121.599 79.152H123.599H125.599C125.599 78.2963 125.709 77.5608 125.905 76.9288L123.995 76.336ZM123.599 79.152H121.599V92H123.599H125.599V79.152H123.599ZM123.599 92V90H119.859V92V94H123.599V92ZM119.859 92H121.859V69.252H119.859H117.859V92H119.859ZM147.432 83.948L145.495 84.4461L145.504 84.4794L145.513 84.5123L147.432 83.948ZM148.708 86.632L147.073 87.783L147.087 87.8029L147.101 87.8225L148.708 86.632ZM150.908 88.524L149.967 90.2887L149.979 90.2951L149.991 90.3012L150.908 88.524ZM157.288 88.48L156.302 86.74L156.302 86.74L157.288 88.48ZM159.444 86.544L161.08 87.695L161.09 87.6811L161.099 87.667L159.444 86.544ZM160.632 83.772L158.695 83.2739L158.688 83.3L158.682 83.3263L160.632 83.772ZM160.632 77.436L158.692 77.9211L158.695 77.9341L160.632 77.436ZM159.356 74.664L157.721 75.815L157.735 75.8349L157.749 75.8545L159.356 74.664ZM157.156 72.772L156.195 74.5256L156.217 74.5377L156.239 74.5492L157.156 72.772ZM150.644 72.772L151.63 74.512L151.63 74.512L150.644 72.772ZM148.532 74.752L150.215 75.8335L150.215 75.8335L148.532 74.752ZM147.388 77.568L149.341 78.0019L149.341 78.0019L147.388 77.568ZM164.636 92V94H166.636V92H164.636ZM160.896 92H158.896V94H160.896V92ZM160.896 88.92H162.896V86.92H160.896V88.92ZM160.808 88.92V86.92H159.559L159.011 88.0423L160.808 88.92ZM157.904 91.648L158.682 93.4905L158.682 93.4905L157.904 91.648ZM148.928 91.516L148.034 93.3049L148.042 93.3088L148.05 93.3128L148.928 91.516ZM145.672 88.92L144.098 90.1538L144.108 90.1668L144.119 90.1796L145.672 88.92ZM143.736 85.136L141.824 85.7214L143.736 85.136ZM143.692 75.984L141.78 75.3986L141.774 75.4165L141.769 75.4346L143.692 75.984ZM145.628 72.244L144.075 70.9844L144.071 70.9893L145.628 72.244ZM148.884 69.692L149.746 71.497L149.754 71.4929L149.763 71.4888L148.884 69.692ZM157.376 69.516L156.579 71.3501L156.613 71.3649L156.647 71.3785L157.376 69.516ZM159.268 70.616L158.019 72.1777L158.061 72.2118L158.106 72.2435L159.268 70.616ZM160.808 72.288L159.1 73.3279L159.684 74.288H160.808V72.288ZM160.896 72.288V74.288H162.896V72.288H160.896ZM160.896 60.584V58.584H158.896V60.584H160.896ZM164.636 60.584H166.636V58.584H164.636V60.584ZM147.036 80.824H145.036C145.036 82.0487 145.19 83.2573 145.495 84.4461L147.432 83.948L149.369 83.4499C149.147 82.5853 149.036 81.7113 149.036 80.824H147.036ZM147.432 83.948L145.513 84.5123C145.864 85.7039 146.381 86.7995 147.073 87.783L148.708 86.632L150.344 85.481C149.921 84.8805 149.587 84.1867 149.351 83.3837L147.432 83.948ZM148.708 86.632L147.101 87.8225C147.867 88.8558 148.828 89.6814 149.967 90.2887L150.908 88.524L151.849 86.7593C151.228 86.4279 150.723 85.9922 150.315 85.4415L148.708 86.632ZM150.908 88.524L149.991 90.3012C151.23 90.9406 152.61 91.228 154.076 91.228V89.228V87.228C153.137 87.228 152.405 87.0461 151.825 86.7468L150.908 88.524ZM154.076 89.228V91.228C155.599 91.228 157.028 90.9263 158.274 90.22L157.288 88.48L156.302 86.74C155.789 87.031 155.076 87.228 154.076 87.228V89.228ZM157.288 88.48L158.274 90.22C159.4 89.5821 160.345 88.7398 161.08 87.695L159.444 86.544L157.809 85.393C157.429 85.9322 156.936 86.3805 156.302 86.74L157.288 88.48ZM159.444 86.544L161.099 87.667C161.804 86.6278 162.295 85.4715 162.582 84.2177L160.632 83.772L158.682 83.3263C158.5 84.1258 158.199 84.8175 157.789 85.421L159.444 86.544ZM160.632 83.772L162.569 84.2701C162.875 83.0813 163.028 81.8727 163.028 80.648H161.028H159.028C159.028 81.5353 158.918 82.4093 158.695 83.2739L160.632 83.772ZM161.028 80.648H163.028C163.028 79.374 162.877 78.1355 162.569 76.9379L160.632 77.436L158.695 77.9341C158.915 78.7899 159.028 79.6927 159.028 80.648H161.028ZM160.632 77.436L162.572 76.9509C162.251 75.6669 161.722 74.4975 160.963 73.4735L159.356 74.664L157.749 75.8545C158.164 76.4145 158.485 77.0931 158.692 77.9211L160.632 77.436ZM159.356 74.664L160.992 73.513C160.238 72.4425 159.252 71.6033 158.073 70.9948L157.156 72.772L156.239 74.5492C156.879 74.8794 157.359 75.3015 157.721 75.815L159.356 74.664ZM157.156 72.772L158.118 71.0184C156.85 70.3232 155.402 70.024 153.856 70.024V72.024V74.024C154.892 74.024 155.644 74.2235 156.195 74.5256L157.156 72.772ZM153.856 72.024V70.024C152.334 70.024 150.905 70.3257 149.658 71.032L150.644 72.772L151.63 74.512C152.144 74.221 152.856 74.024 153.856 74.024V72.024ZM150.644 72.772L149.658 71.032C148.507 71.6845 147.56 72.5665 146.85 73.6705L148.532 74.752L150.215 75.8335C150.561 75.2949 151.022 74.8568 151.63 74.512L150.644 72.772ZM148.532 74.752L146.85 73.6705C146.181 74.7104 145.716 75.8728 145.436 77.1341L147.388 77.568L149.341 78.0019C149.53 77.1512 149.827 76.4363 150.215 75.8335L148.532 74.752ZM147.388 77.568L145.436 77.1341C145.169 78.3369 145.036 79.5679 145.036 80.824H147.036H149.036C149.036 79.8508 149.139 78.9111 149.341 78.0019L147.388 77.568ZM164.636 92V90H160.896V92V94H164.636V92ZM160.896 92H162.896V88.92H160.896H158.896V92H160.896ZM160.896 88.92V86.92H160.808V88.92V90.92H160.896V88.92ZM160.808 88.92L159.011 88.0423C158.612 88.8597 158.011 89.4318 157.126 89.8055L157.904 91.648L158.682 93.4905C160.437 92.7495 161.773 91.503 162.605 89.7977L160.808 88.92ZM157.904 91.648L157.126 89.8055C156.077 90.2484 154.893 90.484 153.548 90.484V92.484V94.484C155.371 94.484 157.091 94.1622 158.682 93.4905L157.904 91.648ZM153.548 92.484V90.484C152.033 90.484 150.804 90.2069 149.807 89.7192L148.928 91.516L148.05 93.3128C149.692 94.1157 151.543 94.484 153.548 94.484V92.484ZM148.928 91.516L149.823 89.7271C148.778 89.205 147.92 88.5171 147.226 87.6604L145.672 88.92L144.119 90.1796C145.184 91.4936 146.497 92.5364 148.034 93.3049L148.928 91.516ZM145.672 88.92L147.246 87.6862C146.56 86.8111 146.023 85.7741 145.649 84.5506L143.736 85.136L141.824 85.7214C142.329 87.3726 143.083 88.8582 144.098 90.1538L145.672 88.92ZM143.736 85.136L145.649 84.5506C145.271 83.3164 145.076 81.9894 145.076 80.56H143.076H141.076C141.076 82.3572 141.322 84.081 141.824 85.7214L143.736 85.136ZM143.076 80.56H145.076C145.076 79.1178 145.259 77.7785 145.615 76.5334L143.692 75.984L141.769 75.4346C141.304 77.0641 141.076 78.7755 141.076 80.56H143.076ZM143.692 75.984L145.605 76.5694C145.978 75.3493 146.511 74.3358 147.186 73.4987L145.628 72.244L144.071 70.9893C143.044 72.2642 142.286 73.744 141.78 75.3986L143.692 75.984ZM145.628 72.244L147.182 73.5036C147.87 72.6548 148.717 71.988 149.746 71.497L148.884 69.692L148.023 67.887C146.47 68.628 145.146 69.6625 144.075 70.9844L145.628 72.244ZM148.884 69.692L149.763 71.4888C150.765 70.9989 151.98 70.724 153.46 70.724V68.724V66.724C151.479 66.724 149.644 67.0944 148.006 67.8952L148.884 69.692ZM153.46 68.724V70.724C153.915 70.724 154.43 70.7696 155.01 70.8704L155.352 68.9L155.695 66.9296C154.925 66.7957 154.179 66.724 153.46 66.724V68.724ZM155.352 68.9L155.01 70.8704C155.517 70.9586 156.039 71.1155 156.579 71.3501L157.376 69.516L158.174 67.6819C157.364 67.3299 156.537 67.0761 155.695 66.9296L155.352 68.9ZM157.376 69.516L156.647 71.3785C157.127 71.5663 157.584 71.8296 158.019 72.1777L159.268 70.616L160.518 69.0543C159.779 68.4637 158.974 67.9936 158.105 67.6535L157.376 69.516ZM159.268 70.616L158.106 72.2435C158.492 72.5197 158.823 72.8737 159.1 73.3279L160.808 72.288L162.517 71.2481C161.972 70.3529 161.276 69.5923 160.431 68.9885L159.268 70.616ZM160.808 72.288V74.288H160.896V72.288V70.288H160.808V72.288ZM160.896 72.288H162.896V60.584H160.896H158.896V72.288H160.896ZM160.896 60.584V62.584H164.636V60.584V58.584H160.896V60.584ZM164.636 60.584H162.636V92H164.636H166.636V60.584H164.636ZM190.542 91.912L191.56 93.6339L192.542 93.0533V91.912H190.542ZM185.526 91.692L184.112 93.1062L184.149 93.1434L184.188 93.1786L185.526 91.692ZM184.69 89.008H186.69V83.4839L183.154 87.7276L184.69 89.008ZM181.082 91.692L181.811 93.5545L181.821 93.5504L181.832 93.5462L181.082 91.692ZM173.734 92.132L173.234 94.0686L173.242 94.0704L173.249 94.0723L173.734 92.132ZM171.358 91.032L172.547 89.4236L172.547 89.4236L171.358 91.032ZM169.73 89.096L167.916 89.9382L167.935 89.9778L167.955 90.0166L169.73 89.096ZM169.818 82.98L168.055 82.0356L168.055 82.0356L169.818 82.98ZM171.534 81L172.69 82.632L172.697 82.6276L172.703 82.6231L171.534 81ZM173.998 79.812L173.457 77.8867L173.449 77.889L173.441 77.8913L173.998 79.812ZM176.858 79.152L177.216 81.1197L177.233 81.1166L177.25 81.1132L176.858 79.152ZM179.762 78.712L179.955 80.7027L179.983 80.7L180.01 80.6966L179.762 78.712ZM182.226 78.272L182.711 80.2123L182.749 80.2029L182.786 80.192L182.226 78.272ZM183.898 77.436L185.2 78.9545L185.23 78.9286L185.259 78.9016L183.898 77.436ZM184.03 73.828L182.306 74.842L182.328 74.8787L182.351 74.9145L184.03 73.828ZM182.842 72.684L181.862 74.4271L181.884 74.4396L181.906 74.4516L182.842 72.684ZM181.214 72.156L180.918 74.1339L180.931 74.1359L181.214 72.156ZM175.494 72.948L176.466 74.6963L176.484 74.6861L176.502 74.6756L175.494 72.948ZM173.778 76.336V78.336H175.676L175.775 76.4411L173.778 76.336ZM170.038 76.336L168.04 76.2527L167.953 78.336H170.038V76.336ZM170.918 72.772L172.674 73.7297L172.674 73.7297L170.918 72.772ZM173.03 70.44L174.14 72.1041L174.159 72.0915L174.177 72.0785L173.03 70.44ZM176.022 69.12L175.572 67.1712L175.561 67.1738L176.022 69.12ZM182.71 68.944L182.419 70.9227L182.427 70.9239L182.71 68.944ZM185.482 69.868L184.49 71.6045L184.514 71.618L184.538 71.631L185.482 69.868ZM187.462 71.76L185.753 72.798L185.753 72.798L187.462 71.76ZM188.342 88.612L186.387 89.0311L186.401 89.0968L186.419 89.1614L188.342 88.612ZM190.542 89.008H192.542V86.2331L189.91 87.1106L190.542 89.008ZM184.47 80.252H186.47V76.252L183.27 78.652L184.47 80.252ZM182.622 81.044L183 83.008L183.036 83.0011L183.072 82.9928L182.622 81.044ZM180.202 81.44L180.415 83.4286L180.445 83.4254L180.475 83.4212L180.202 81.44ZM177.694 81.792L177.967 83.7732L178.001 83.7686L178.034 83.7629L177.694 81.792ZM173.734 83.684L172.164 82.4447L172.16 82.4504L172.156 82.4561L173.734 83.684ZM173.47 87.468L171.706 88.4092L171.744 88.481L171.788 88.5495L173.47 87.468ZM174.438 88.48L173.3 90.1244L173.328 90.1439L173.357 90.1624L174.438 88.48ZM180.686 88.744L181.375 90.6218L181.402 90.6117L181.429 90.601L180.686 88.744ZM182.842 87.468L184.176 88.9585L184.197 88.9395L184.218 88.9199L182.842 87.468ZM184.074 85.796L185.898 86.6167L185.905 86.6003L185.913 86.5838L184.074 85.796ZM190.542 91.912L189.525 90.1901C189.309 90.3178 188.818 90.484 187.858 90.484V92.484V94.484C189.187 94.484 190.485 94.2689 191.56 93.6339L190.542 91.912ZM187.858 92.484V90.484C187.267 90.484 187.005 90.3322 186.864 90.2054L185.526 91.692L184.188 93.1786C185.221 94.1078 186.513 94.484 187.858 94.484V92.484ZM185.526 91.692L186.94 90.2778C186.923 90.2602 186.69 89.9998 186.69 89.008H184.69H182.69C182.69 90.4802 183.015 92.0091 184.112 93.1062L185.526 91.692ZM184.69 89.008L183.154 87.7276C182.321 88.7268 181.382 89.4136 180.333 89.8378L181.082 91.692L181.832 93.5462C183.54 92.8558 185.006 91.7532 186.227 90.2884L184.69 89.008ZM181.082 91.692L180.353 89.8295C179.257 90.2585 178.04 90.484 176.682 90.484V92.484V94.484C178.492 94.484 180.209 94.1815 181.811 93.5545L181.082 91.692ZM176.682 92.484V90.484C175.809 90.484 174.99 90.3844 174.219 90.1917L173.734 92.132L173.249 94.0723C174.356 94.349 175.502 94.484 176.682 94.484V92.484ZM173.734 92.132L174.234 90.1954C173.544 90.0173 172.992 89.7525 172.547 89.4236L171.358 91.032L170.169 92.6404C171.074 93.3088 172.106 93.7774 173.234 94.0686L173.734 92.132ZM171.358 91.032L172.547 89.4236C172.133 89.1179 171.785 88.7139 171.506 88.1754L169.73 89.096L167.955 90.0166C168.497 91.0621 169.234 91.9488 170.169 92.6404L171.358 91.032ZM169.73 89.096L171.544 88.2538C171.313 87.7562 171.158 87.0753 171.158 86.148H169.158H167.158C167.158 87.5087 167.385 88.7931 167.916 89.9382L169.73 89.096ZM169.158 86.148H171.158C171.158 85.0665 171.345 84.3651 171.581 83.9244L169.818 82.98L168.055 82.0356C167.411 83.2376 167.158 84.6481 167.158 86.148H169.158ZM169.818 82.98L171.581 83.9244C171.887 83.3539 172.259 82.9375 172.69 82.632L171.534 81L170.378 79.368C169.401 80.0598 168.63 80.9634 168.055 82.0356L169.818 82.98ZM171.534 81L172.703 82.6231C173.242 82.2347 173.855 81.9361 174.556 81.7327L173.998 79.812L173.441 77.8913C172.323 78.2159 171.293 78.7093 170.366 79.3769L171.534 81ZM173.998 79.812L174.54 81.7373C175.417 81.4905 176.309 81.2846 177.216 81.1197L176.858 79.152L176.5 77.1843C175.471 77.3714 174.456 77.6055 173.457 77.8867L173.998 79.812ZM176.858 79.152L177.25 81.1132C178.22 80.9192 179.121 80.7834 179.955 80.7027L179.762 78.712L179.57 76.7213C178.584 76.8166 177.549 76.9742 176.466 77.1908L176.858 79.152ZM179.762 78.712L180.01 80.6966C181.006 80.5721 181.91 80.4126 182.711 80.2123L182.226 78.272L181.741 76.3317C181.134 76.4834 180.395 76.6173 179.514 76.7274L179.762 78.712ZM182.226 78.272L182.786 80.192C183.671 79.9338 184.511 79.545 185.2 78.9545L183.898 77.436L182.597 75.9175C182.464 76.031 182.189 76.1995 181.666 76.352L182.226 78.272ZM183.898 77.436L185.259 78.9016C186.177 78.0495 186.514 76.9161 186.514 75.808H184.514H182.514C182.514 75.9683 182.491 76.0326 182.49 76.0352C182.489 76.036 182.493 76.026 182.504 76.0103C182.514 75.9945 182.526 75.9805 182.537 75.9704L183.898 77.436ZM184.514 75.808H186.514C186.514 74.7435 186.307 73.6656 185.709 72.7415L184.03 73.828L182.351 74.9145C182.398 74.9877 182.514 75.2298 182.514 75.808H184.514ZM184.03 73.828L185.754 72.814C185.278 72.0045 184.613 71.3583 183.778 70.9164L182.842 72.684L181.906 74.4516C182.069 74.5377 182.196 74.6542 182.306 74.842L184.03 73.828ZM182.842 72.684L183.823 70.9408C183.107 70.5381 182.321 70.2938 181.497 70.1761L181.214 72.156L180.931 74.1359C181.34 74.1942 181.639 74.3019 181.862 74.4271L182.842 72.684ZM181.214 72.156L181.511 70.1781C180.827 70.0756 180.141 70.024 179.454 70.024V72.024V74.024C179.94 74.024 180.428 74.0604 180.918 74.1339L181.214 72.156ZM179.454 72.024V70.024C177.618 70.024 175.926 70.3807 174.486 71.2204L175.494 72.948L176.502 74.6756C177.174 74.2833 178.122 74.024 179.454 74.024V72.024ZM175.494 72.948L174.523 71.1997C172.646 72.2422 171.89 74.1644 171.781 76.2309L173.778 76.336L175.775 76.4411C175.843 75.1636 176.23 74.8271 176.466 74.6963L175.494 72.948ZM173.778 76.336V74.336H170.038V76.336V78.336H173.778V76.336ZM170.038 76.336L172.036 76.4193C172.086 75.235 172.328 74.3645 172.674 73.7297L170.918 72.772L169.162 71.8143C168.453 73.1155 168.108 74.621 168.04 76.2527L170.038 76.336ZM170.918 72.772L172.674 73.7297C173.054 73.0335 173.541 72.5034 174.14 72.1041L173.03 70.44L171.921 68.7759C170.76 69.55 169.839 70.5745 169.162 71.8143L170.918 72.772ZM173.03 70.44L174.177 72.0785C174.837 71.6169 175.598 71.2758 176.483 71.0662L176.022 69.12L175.561 67.1738C174.217 67.4922 172.984 68.0311 171.883 68.8015L173.03 70.44ZM176.022 69.12L176.472 71.0688C177.455 70.842 178.52 70.724 179.674 70.724V68.724V66.724C178.247 66.724 176.878 66.87 175.572 67.1712L176.022 69.12ZM179.674 68.724V70.724C180.605 70.724 181.52 70.7905 182.419 70.9227L182.71 68.944L183.001 66.9653C181.906 66.8042 180.796 66.724 179.674 66.724V68.724ZM182.71 68.944L182.427 70.9239C183.228 71.0383 183.908 71.2718 184.49 71.6045L185.482 69.868L186.474 68.1315C185.414 67.5255 184.245 67.143 182.993 66.9641L182.71 68.944ZM185.482 69.868L184.538 71.631C185.034 71.8966 185.434 72.2724 185.753 72.798L187.462 71.76L189.172 70.722C188.494 69.605 187.573 68.7194 186.427 68.105L185.482 69.868ZM187.462 71.76L185.753 72.798C186.003 73.2104 186.21 73.8866 186.21 74.972H188.21H190.21C190.21 73.4174 189.919 71.9522 189.172 70.722L187.462 71.76ZM188.21 74.972H186.21V86.676H188.21H190.21V74.972H188.21ZM188.21 86.676H186.21C186.21 87.5786 186.252 88.4018 186.387 89.0311L188.342 88.612L190.298 88.1929C190.257 88.0009 190.21 87.5334 190.21 86.676H188.21ZM188.342 88.612L186.419 89.1614C186.612 89.8365 187.042 90.4254 187.686 90.8016C188.274 91.1443 188.897 91.228 189.398 91.228V89.228V87.228C189.312 87.228 189.466 87.2091 189.702 87.3464C189.828 87.4201 189.957 87.5272 190.065 87.6694C190.172 87.8101 190.233 87.9503 190.265 88.0626L188.342 88.612ZM189.398 89.228V91.228C190.007 91.228 190.612 91.0929 191.175 90.9054L190.542 89.008L189.91 87.1106C189.592 87.2164 189.434 87.228 189.398 87.228V89.228ZM190.542 89.008H188.542V91.912H190.542H192.542V89.008H190.542ZM184.47 80.252L183.27 78.652C183.085 78.7908 182.75 78.962 182.172 79.0952L182.622 81.044L183.072 82.9928C184.02 82.774 184.917 82.4172 185.67 81.852L184.47 80.252ZM182.622 81.044L182.245 79.08C181.52 79.2193 180.748 79.3457 179.929 79.4588L180.202 81.44L180.475 83.4212C181.358 83.2996 182.199 83.162 183 83.008L182.622 81.044ZM180.202 81.44L179.989 79.4514C179.124 79.5441 178.245 79.6675 177.354 79.8211L177.694 81.792L178.034 83.7629C178.845 83.6232 179.638 83.5119 180.415 83.4286L180.202 81.44ZM177.694 81.792L177.421 79.8108C176.419 79.949 175.476 80.1969 174.609 80.5739L175.406 82.408L176.204 84.2421C176.686 84.0324 177.268 83.8697 177.967 83.7732L177.694 81.792ZM175.406 82.408L174.609 80.5739C173.643 80.9938 172.816 81.6189 172.164 82.4447L173.734 83.684L175.304 84.9233C175.532 84.6344 175.82 84.4088 176.204 84.2421L175.406 82.408ZM173.734 83.684L172.156 82.4561C171.381 83.4524 171.118 84.6762 171.118 85.884H173.118H175.118C175.118 85.2144 175.266 84.9716 175.313 84.9119L173.734 83.684ZM173.118 85.884H171.118C171.118 86.7522 171.284 87.6191 171.706 88.4092L173.47 87.468L175.235 86.5268C175.187 86.4369 175.118 86.2478 175.118 85.884H173.118ZM173.47 87.468L171.788 88.5495C172.187 89.17 172.691 89.7026 173.3 90.1244L174.438 88.48L175.577 86.8356C175.423 86.7294 175.282 86.5874 175.153 86.3865L173.47 87.468ZM174.438 88.48L173.357 90.1624C173.986 90.5668 174.679 90.8414 175.412 91.0044L175.846 89.052L176.28 87.0996C175.957 87.0279 175.712 86.9212 175.52 86.7976L174.438 88.48ZM175.846 89.052L175.412 91.0044C176.094 91.1559 176.798 91.228 177.518 91.228V89.228V87.228C177.065 87.228 176.654 87.1828 176.28 87.0996L175.846 89.052ZM177.518 89.228V91.228C178.915 91.228 180.217 91.0462 181.375 90.6218L180.686 88.744L179.998 86.8662C179.395 87.0871 178.585 87.228 177.518 87.228V89.228ZM180.686 88.744L181.429 90.601C182.47 90.1844 183.405 89.6482 184.176 88.9585L182.842 87.468L181.509 85.9775C181.165 86.2851 180.662 86.5996 179.943 86.887L180.686 88.744ZM182.842 87.468L184.218 88.9199C184.928 88.2467 185.509 87.4822 185.898 86.6167L184.074 85.796L182.25 84.9753C182.112 85.2831 181.871 85.6333 181.467 86.0161L182.842 87.468ZM184.074 85.796L185.913 86.5838C186.256 85.7834 186.47 84.9412 186.47 84.08H184.47H182.47C182.47 84.2748 182.421 84.5766 182.236 85.0082L184.074 85.796ZM184.47 84.08H186.47V80.252H184.47H182.47V84.08H184.47ZM193.891 69.252V67.252H191.891V69.252H193.891ZM197.411 69.252H199.411V67.252H197.411V69.252ZM197.411 74.048H195.411V76.048H197.411V74.048ZM197.499 74.048V76.048H198.744L199.294 74.931L197.499 74.048ZM200.843 69.956L199.734 68.2919L199.734 68.2919L200.843 69.956ZM205.859 68.724H207.859V66.7811L205.917 66.7248L205.859 68.724ZM205.859 72.684V74.684H207.859V72.684H205.859ZM202.031 73.3L201.306 71.436L202.031 73.3ZM199.479 75.104L201.03 76.3673L201.03 76.3673L199.479 75.104ZM198.071 78.008L200.005 78.517L200.008 78.5048L198.071 78.008ZM197.631 92V94H199.631V92H197.631ZM193.891 92H191.891V94H193.891V92ZM193.891 69.252V71.252H197.411V69.252V67.252H193.891V69.252ZM197.411 69.252H195.411V74.048H197.411H199.411V69.252H197.411ZM197.411 74.048V76.048H197.499V74.048V72.048H197.411V74.048ZM197.499 74.048L199.294 74.931C200.093 73.3071 201.001 72.2547 201.952 71.6201L200.843 69.956L199.734 68.2919C198.045 69.4173 196.724 71.0929 195.705 73.165L197.499 74.048ZM200.843 69.956L201.952 71.6201C202.843 71.0265 204.077 70.6732 205.801 70.7232L205.859 68.724L205.917 66.7248C203.593 66.6575 201.483 67.1255 199.734 68.2919L200.843 69.956ZM205.859 68.724H203.859V72.684H205.859H207.859V68.724H205.859ZM205.859 72.684V70.684C204.19 70.684 202.654 70.9117 201.306 71.436L202.031 73.3L202.756 75.164C203.52 74.8669 204.536 74.684 205.859 74.684V72.684ZM202.031 73.3L201.306 71.436C199.964 71.9581 198.816 72.752 197.929 73.8407L199.479 75.104L201.03 76.3673C201.433 75.872 201.986 75.4632 202.756 75.164L202.031 73.3ZM199.479 75.104L197.929 73.8407C197.074 74.8896 196.488 76.1303 196.134 77.5112L198.071 78.008L200.008 78.5048C200.241 77.5977 200.594 76.9024 201.03 76.3673L199.479 75.104ZM198.071 78.008L196.137 77.499C195.79 78.8177 195.631 80.2858 195.631 81.88H197.631H199.631C199.631 80.5409 199.766 79.4276 200.005 78.517L198.071 78.008ZM197.631 81.88H195.631V92H197.631H199.631V81.88H197.631ZM197.631 92V90H193.891V92V94H197.631V92ZM193.891 92H195.891V69.252H193.891H191.891V92H193.891ZM211.026 83.948L209.089 84.4461L209.098 84.4794L209.107 84.5123L211.026 83.948ZM212.302 86.632L210.666 87.783L210.68 87.8029L210.695 87.8225L212.302 86.632ZM214.502 88.524L213.561 90.2887L213.573 90.2951L213.585 90.3012L214.502 88.524ZM220.882 88.48L219.896 86.74L219.896 86.74L220.882 88.48ZM223.038 86.544L224.674 87.695L224.683 87.6811L224.693 87.667L223.038 86.544ZM224.226 83.772L222.289 83.2739L222.282 83.3L222.276 83.3263L224.226 83.772ZM224.226 77.436L222.286 77.9211L222.289 77.9341L224.226 77.436ZM222.95 74.664L221.314 75.815L221.328 75.8349L221.343 75.8545L222.95 74.664ZM220.75 72.772L219.788 74.5256L219.81 74.5377L219.833 74.5492L220.75 72.772ZM214.238 72.772L215.224 74.512L215.224 74.512L214.238 72.772ZM212.126 74.752L213.808 75.8335L213.808 75.8335L212.126 74.752ZM210.982 77.568L212.934 78.0019L212.934 78.0019L210.982 77.568ZM228.23 92V94H230.23V92H228.23ZM224.49 92H222.49V94H224.49V92ZM224.49 88.92H226.49V86.92H224.49V88.92ZM224.402 88.92V86.92H223.153L222.605 88.0423L224.402 88.92ZM221.498 91.648L222.276 93.4905L222.276 93.4905L221.498 91.648ZM212.522 91.516L211.628 93.3049L211.635 93.3088L211.644 93.3128L212.522 91.516ZM209.266 88.92L207.692 90.1538L207.702 90.1668L207.712 90.1796L209.266 88.92ZM207.33 85.136L205.418 85.7214L207.33 85.136ZM207.286 75.984L205.374 75.3986L205.368 75.4165L205.363 75.4346L207.286 75.984ZM209.222 72.244L207.668 70.9844L207.664 70.9893L209.222 72.244ZM212.478 69.692L213.339 71.497L213.348 71.4929L213.356 71.4888L212.478 69.692ZM220.97 69.516L220.172 71.3501L220.207 71.3649L220.241 71.3785L220.97 69.516ZM222.862 70.616L221.613 72.1777L221.655 72.2118L221.699 72.2435L222.862 70.616ZM224.402 72.288L222.694 73.3279L223.278 74.288H224.402V72.288ZM224.49 72.288V74.288H226.49V72.288H224.49ZM224.49 60.584V58.584H222.49V60.584H224.49ZM228.23 60.584H230.23V58.584H228.23V60.584ZM210.63 80.824H208.63C208.63 82.0487 208.783 83.2573 209.089 84.4461L211.026 83.948L212.963 83.4499C212.741 82.5853 212.63 81.7113 212.63 80.824H210.63ZM211.026 83.948L209.107 84.5123C209.458 85.7039 209.974 86.7995 210.666 87.783L212.302 86.632L213.938 85.481C213.515 84.8805 213.181 84.1867 212.945 83.3837L211.026 83.948ZM212.302 86.632L210.695 87.8225C211.46 88.8558 212.422 89.6814 213.561 90.2887L214.502 88.524L215.443 86.7593C214.822 86.4279 214.317 85.9922 213.909 85.4415L212.302 86.632ZM214.502 88.524L213.585 90.3012C214.823 90.9406 216.204 91.228 217.67 91.228V89.228V87.228C216.731 87.228 215.999 87.0461 215.419 86.7468L214.502 88.524ZM217.67 89.228V91.228C219.193 91.228 220.622 90.9263 221.868 90.22L220.882 88.48L219.896 86.74C219.382 87.031 218.67 87.228 217.67 87.228V89.228ZM220.882 88.48L221.868 90.22C222.994 89.5821 223.938 88.7398 224.674 87.695L223.038 86.544L221.402 85.393C221.023 85.9322 220.53 86.3805 219.896 86.74L220.882 88.48ZM223.038 86.544L224.693 87.667C225.398 86.6278 225.889 85.4715 226.176 84.2177L224.226 83.772L222.276 83.3263C222.093 84.1258 221.793 84.8175 221.383 85.421L223.038 86.544ZM224.226 83.772L226.163 84.2701C226.469 83.0813 226.622 81.8727 226.622 80.648H224.622H222.622C222.622 81.5353 222.511 82.4093 222.289 83.2739L224.226 83.772ZM224.622 80.648H226.622C226.622 79.374 226.471 78.1355 226.163 76.9379L224.226 77.436L222.289 77.9341C222.509 78.7899 222.622 79.6927 222.622 80.648H224.622ZM224.226 77.436L226.166 76.9509C225.845 75.6669 225.316 74.4975 224.557 73.4735L222.95 74.664L221.343 75.8545C221.758 76.4145 222.079 77.0931 222.286 77.9211L224.226 77.436ZM222.95 74.664L224.586 73.513C223.832 72.4425 222.846 71.6033 221.667 70.9948L220.75 72.772L219.833 74.5492C220.472 74.8794 220.953 75.3015 221.314 75.815L222.95 74.664ZM220.75 72.772L221.712 71.0184C220.444 70.3232 218.996 70.024 217.45 70.024V72.024V74.024C218.485 74.024 219.237 74.2235 219.788 74.5256L220.75 72.772ZM217.45 72.024V70.024C215.927 70.024 214.498 70.3257 213.252 71.032L214.238 72.772L215.224 74.512C215.738 74.221 216.45 74.024 217.45 74.024V72.024ZM214.238 72.772L213.252 71.032C212.1 71.6845 211.153 72.5665 210.444 73.6705L212.126 74.752L213.808 75.8335C214.155 75.2949 214.616 74.8568 215.224 74.512L214.238 72.772ZM212.126 74.752L210.444 73.6705C209.775 74.7104 209.31 75.8728 209.03 77.1341L210.982 77.568L212.934 78.0019C213.123 77.1512 213.421 76.4363 213.808 75.8335L212.126 74.752ZM210.982 77.568L209.03 77.1341C208.762 78.3369 208.63 79.5679 208.63 80.824H210.63H212.63C212.63 79.8508 212.732 78.9111 212.934 78.0019L210.982 77.568ZM228.23 92V90H224.49V92V94H228.23V92ZM224.49 92H226.49V88.92H224.49H222.49V92H224.49ZM224.49 88.92V86.92H224.402V88.92V90.92H224.49V88.92ZM224.402 88.92L222.605 88.0423C222.206 88.8597 221.605 89.4318 220.72 89.8055L221.498 91.648L222.276 93.4905C224.031 92.7495 225.366 91.503 226.199 89.7977L224.402 88.92ZM221.498 91.648L220.72 89.8055C219.671 90.2484 218.487 90.484 217.142 90.484V92.484V94.484C218.965 94.484 220.685 94.1622 222.276 93.4905L221.498 91.648ZM217.142 92.484V90.484C215.627 90.484 214.398 90.2069 213.4 89.7192L212.522 91.516L211.644 93.3128C213.286 94.1157 215.137 94.484 217.142 94.484V92.484ZM212.522 91.516L213.416 89.7271C212.372 89.205 211.514 88.5171 210.819 87.6604L209.266 88.92L207.712 90.1796C208.778 91.4936 210.091 92.5364 211.628 93.3049L212.522 91.516ZM209.266 88.92L210.84 87.6862C210.154 86.8111 209.617 85.7741 209.242 84.5506L207.33 85.136L205.418 85.7214C205.923 87.3726 206.676 88.8582 207.692 90.1538L209.266 88.92ZM207.33 85.136L209.242 84.5506C208.865 83.3164 208.67 81.9894 208.67 80.56H206.67H204.67C204.67 82.3572 204.915 84.081 205.418 85.7214L207.33 85.136ZM206.67 80.56H208.67C208.67 79.1178 208.853 77.7785 209.209 76.5334L207.286 75.984L205.363 75.4346C204.897 77.0641 204.67 78.7755 204.67 80.56H206.67ZM207.286 75.984L209.198 76.5694C209.572 75.3493 210.105 74.3358 210.779 73.4987L209.222 72.244L207.664 70.9893C206.637 72.2642 205.88 73.744 205.374 75.3986L207.286 75.984ZM209.222 72.244L210.775 73.5036C211.464 72.6548 212.311 71.988 213.339 71.497L212.478 69.692L211.616 67.887C210.064 68.628 208.74 69.6625 207.668 70.9844L209.222 72.244ZM212.478 69.692L213.356 71.4888C214.358 70.9989 215.574 70.724 217.054 70.724V68.724V66.724C215.073 66.724 213.238 67.0944 211.6 67.8952L212.478 69.692ZM217.054 68.724V70.724C217.509 70.724 218.024 70.7696 218.603 70.8704L218.946 68.9L219.289 66.9296C218.519 66.7957 217.773 66.724 217.054 66.724V68.724ZM218.946 68.9L218.603 70.8704C219.11 70.9586 219.633 71.1155 220.172 71.3501L220.97 69.516L221.767 67.6819C220.958 67.3299 220.131 67.0761 219.289 66.9296L218.946 68.9ZM220.97 69.516L220.241 71.3785C220.721 71.5663 221.177 71.8296 221.613 72.1777L222.862 70.616L224.111 69.0543C223.373 68.4637 222.568 67.9936 221.699 67.6535L220.97 69.516ZM222.862 70.616L221.699 72.2435C222.086 72.5197 222.417 72.8737 222.694 73.3279L224.402 72.288L226.11 71.2481C225.565 70.3529 224.87 69.5923 224.024 68.9885L222.862 70.616ZM224.402 72.288V74.288H224.49V72.288V70.288H224.402V72.288ZM224.49 72.288H226.49V60.584H224.49H222.49V72.288H224.49ZM224.49 60.584V62.584H228.23V60.584V58.584H224.49V60.584ZM228.23 60.584H226.23V92H228.23H230.23V60.584H228.23ZM234.512 60.584V58.584H232.512V60.584H234.512ZM257.128 60.584H259.128V58.584H257.128V60.584ZM257.128 65.336V67.336H259.128V65.336H257.128ZM240.012 65.336V63.336H238.012V65.336H240.012ZM240.012 73.564H238.012V75.564H240.012V73.564ZM255.852 73.564H257.852V71.564H255.852V73.564ZM255.852 78.052V80.052H257.852V78.052H255.852ZM240.012 78.052V76.052H238.012V78.052H240.012ZM240.012 87.248H238.012V89.248H240.012V87.248ZM257.436 87.248H259.436V85.248H257.436V87.248ZM257.436 92V94H259.436V92H257.436ZM234.512 92H232.512V94H234.512V92ZM234.512 60.584V62.584H257.128V60.584V58.584H234.512V60.584ZM257.128 60.584H255.128V65.336H257.128H259.128V60.584H257.128ZM257.128 65.336V63.336H240.012V65.336V67.336H257.128V65.336ZM240.012 65.336H238.012V73.564H240.012H242.012V65.336H240.012ZM240.012 73.564V75.564H255.852V73.564V71.564H240.012V73.564ZM255.852 73.564H253.852V78.052H255.852H257.852V73.564H255.852ZM255.852 78.052V76.052H240.012V78.052V80.052H255.852V78.052ZM240.012 78.052H238.012V87.248H240.012H242.012V78.052H240.012ZM240.012 87.248V89.248H257.436V87.248V85.248H240.012V87.248ZM257.436 87.248H255.436V92H257.436H259.436V87.248H257.436ZM257.436 92V90H234.512V92V94H257.436V92ZM234.512 92H236.512V60.584H234.512H232.512V92H234.512ZM281.631 92V94H283.631V92H281.631ZM260.599 92L258.599 91.977L258.576 94H260.599V92ZM262.447 85.312L260.755 84.245L260.755 84.245L262.447 85.312ZM267.375 80.34L268.495 81.9969L268.528 81.9747L268.56 81.9513L267.375 80.34ZM270.499 78.228L271.555 79.9266L271.571 79.9164L271.587 79.9059L270.499 78.228ZM275.735 73.432L277.415 74.5163L277.423 74.5042L277.431 74.492L275.735 73.432ZM276.659 70.22L278.658 70.2688L278.659 70.2444V70.22H276.659ZM276.439 68.46L274.471 68.8178L274.481 68.8708L274.493 68.9232L276.439 68.46ZM275.691 66.7L274.04 67.8294L274.055 67.8504L274.069 67.871L275.691 66.7ZM274.107 65.336L273.123 67.0771L273.152 67.0936L273.182 67.1092L274.107 65.336ZM268.959 65.38L269.976 67.1019L269.988 67.0952L269.999 67.0884L268.959 65.38ZM267.375 67.008L265.647 66.0003L265.64 66.012L265.634 66.0239L267.375 67.008ZM266.495 69.428L264.541 69.0006L264.535 69.0299L264.529 69.0594L266.495 69.428ZM266.187 72.464V74.464H268.133L268.186 72.518L266.187 72.464ZM261.171 72.464H259.171V74.464H261.171V72.464ZM261.831 67.756L259.926 67.1464L259.922 67.1585L259.918 67.1706L261.831 67.756ZM267.199 61.508L268.026 63.3287L268.036 63.3246L268.045 63.3204L267.199 61.508ZM276.483 61.508L275.605 63.3051L275.605 63.3051L276.483 61.508ZM279.519 63.84L277.967 65.1012L277.978 65.1156L277.99 65.1297L279.519 63.84ZM281.191 66.92L279.27 67.4761L279.272 67.483L279.274 67.4899L281.191 66.92ZM281.103 73.388L279.235 72.6737L279.235 72.6737L281.103 73.388ZM279.563 76.16L281.135 77.3956L281.146 77.3823L281.156 77.3688L279.563 76.16ZM277.363 78.448L276.061 76.9295L276.061 76.9295L277.363 78.448ZM274.811 80.428L275.958 82.0665L274.811 80.428ZM272.171 82.188L273.241 83.8776L273.241 83.8776L272.171 82.188ZM269.707 83.86L268.527 82.2452L268.512 82.2563L268.497 82.2677L269.707 83.86ZM267.771 85.62L269.221 86.9975L269.238 86.9799L269.254 86.9618L267.771 85.62ZM266.627 87.512L264.713 86.9297L263.928 89.512H266.627V87.512ZM281.631 87.512H283.631V85.512H281.631V87.512ZM281.631 92V90H260.599V92V94H281.631V92ZM260.599 92L262.599 92.023C262.624 89.7907 263.158 87.9331 264.138 86.379L262.447 85.312L260.755 84.245C259.33 86.5043 258.632 89.1053 258.599 91.977L260.599 92ZM262.447 85.312L264.138 86.379C265.177 84.732 266.615 83.2678 268.495 81.9969L267.375 80.34L266.255 78.6831C263.969 80.2282 262.122 82.0787 260.755 84.245L262.447 85.312ZM267.375 80.34L268.56 81.9513C269.514 81.2497 270.512 80.5747 271.555 79.9266L270.499 78.228L269.443 76.5294C268.315 77.2306 267.231 77.9636 266.19 78.7287L267.375 80.34ZM270.499 78.228L271.587 79.9059C272.746 79.1544 273.819 78.3503 274.804 77.4922L273.491 75.984L272.177 74.4758C271.344 75.2017 270.422 75.8936 269.41 76.5501L270.499 78.228ZM273.491 75.984L274.804 77.4922C275.839 76.5907 276.716 75.6003 277.415 74.5163L275.735 73.432L274.054 72.3477C273.58 73.0824 272.961 73.7933 272.177 74.4758L273.491 75.984ZM275.735 73.432L277.431 74.492C278.224 73.2234 278.621 71.7975 278.658 70.2688L276.659 70.22L274.659 70.1712C274.638 71.0478 274.419 71.7633 274.039 72.372L275.735 73.432ZM276.659 70.22H278.659C278.659 69.4872 278.562 68.7444 278.384 67.9968L276.439 68.46L274.493 68.9232C274.609 69.4076 274.659 69.8381 274.659 70.22H276.659ZM276.439 68.46L278.407 68.1022C278.236 67.1655 277.869 66.3006 277.312 65.529L275.691 66.7L274.069 67.871C274.275 68.1554 274.407 68.4638 274.471 68.8178L276.439 68.46ZM275.691 66.7L277.341 65.5706C276.752 64.7096 275.96 64.0471 275.032 63.5628L274.107 65.336L273.182 67.1092C273.603 67.3289 273.867 67.5757 274.04 67.8294L275.691 66.7ZM274.107 65.336L275.091 63.5949C274.02 62.9893 272.766 62.764 271.467 62.764V64.764V66.764C272.338 66.764 272.845 66.92 273.123 67.0771L274.107 65.336ZM271.467 64.764V62.764C270.198 62.764 268.979 63.0261 267.919 63.6716L268.959 65.38L269.999 67.0884C270.288 66.9126 270.741 66.764 271.467 66.764V64.764ZM268.959 65.38L267.941 63.6581C266.977 64.228 266.214 65.028 265.647 66.0003L267.375 67.008L269.102 68.0157C269.357 67.58 269.65 67.2947 269.976 67.1019L268.959 65.38ZM267.375 67.008L265.634 66.0239C265.134 66.9083 264.779 67.9116 264.541 69.0006L266.495 69.428L268.449 69.8554C268.621 69.0671 268.853 68.457 269.116 67.9921L267.375 67.008ZM266.495 69.428L264.529 69.0594C264.331 70.1148 264.219 71.2331 264.188 72.41L266.187 72.464L268.186 72.518C268.213 71.5242 268.306 70.6185 268.461 69.7966L266.495 69.428ZM266.187 72.464V70.464H261.171V72.464V74.464H266.187V72.464ZM261.171 72.464H263.171C263.171 70.9354 263.368 69.5659 263.743 68.3414L261.831 67.756L259.918 67.1706C259.413 68.8207 259.171 70.59 259.171 72.464H261.171ZM261.831 67.756L263.736 68.3656C264.132 67.1275 264.698 66.1093 265.414 65.277L263.899 63.972L262.383 62.667C261.281 63.9467 260.468 65.4511 259.926 67.1464L261.831 67.756ZM263.899 63.972L265.414 65.277C266.131 64.4447 266.995 63.7976 268.026 63.3287L267.199 61.508L266.371 59.6873C264.821 60.3918 263.485 61.3873 262.383 62.667L263.899 63.972ZM267.199 61.508L268.045 63.3204C269.055 62.849 270.282 62.584 271.775 62.584V60.584V58.584C269.806 58.584 267.983 58.935 266.353 59.6956L267.199 61.508ZM271.775 60.584V62.584C273.446 62.584 274.693 62.8598 275.605 63.3051L276.483 61.508L277.36 59.7109C275.75 58.9242 273.858 58.584 271.775 58.584V60.584ZM276.483 61.508L275.605 63.3051C276.647 63.814 277.414 64.4215 277.967 65.1012L279.519 63.84L281.071 62.5788C280.098 61.3812 278.841 60.434 277.36 59.7109L276.483 61.508ZM279.519 63.84L277.99 65.1297C278.612 65.8668 279.029 66.6464 279.27 67.4761L281.191 66.92L283.112 66.3639C282.707 64.9643 282.009 63.6905 281.047 62.5503L279.519 63.84ZM281.191 66.92L279.274 67.4899C279.549 68.4149 279.675 69.2637 279.675 70.044H281.675H283.675C283.675 68.8296 283.478 67.5958 283.108 66.3501L281.191 66.92ZM281.675 70.044H279.675C279.675 71.0689 279.517 71.9366 279.235 72.6737L281.103 73.388L282.971 74.1023C283.452 72.8447 283.675 71.4831 283.675 70.044H281.675ZM281.103 73.388L279.235 72.6737C278.921 73.494 278.5 74.2515 277.969 74.9512L279.563 76.16L281.156 77.3688C281.916 76.3671 282.522 75.2766 282.971 74.1023L281.103 73.388ZM279.563 76.16L277.99 74.9244C277.429 75.6392 276.787 76.3076 276.061 76.9295L277.363 78.448L278.664 79.9665C279.582 79.1804 280.406 78.3235 281.135 77.3956L279.563 76.16ZM277.363 78.448L276.061 76.9295C275.289 77.5913 274.49 78.2112 273.664 78.7895L274.811 80.428L275.958 82.0665C276.892 81.4128 277.794 80.7127 278.664 79.9665L277.363 78.448ZM274.811 80.428L273.664 78.7895C272.808 79.3884 271.954 79.958 271.101 80.4984L272.171 82.188L273.241 83.8776C274.148 83.3033 275.053 82.6996 275.958 82.0665L274.811 80.428ZM272.171 82.188L271.101 80.4984C270.187 81.077 269.329 81.6592 268.527 82.2452L269.707 83.86L270.887 85.4748C271.61 84.9461 272.395 84.4136 273.241 83.8776L272.171 82.188ZM269.707 83.86L268.497 82.2677C267.675 82.8919 266.936 83.5611 266.288 84.2782L267.771 85.62L269.254 86.9618C269.72 86.4469 270.272 85.9428 270.917 85.4523L269.707 83.86ZM267.771 85.62L266.321 84.2425C265.581 85.0213 265.022 85.9165 264.713 86.9297L266.627 87.512L268.54 88.0943C268.642 87.7582 268.846 87.3921 269.221 86.9975L267.771 85.62ZM266.627 87.512V89.512H281.631V87.512V85.512H266.627V87.512ZM281.631 87.512H279.631V92H281.631H283.631V87.512H281.631ZM286.676 60.584V58.584H284.676V60.584H286.676ZM309.292 60.584H311.292V58.584H309.292V60.584ZM309.292 65.336V67.336H311.292V65.336H309.292ZM292.176 65.336V63.336H290.176V65.336H292.176ZM292.176 73.564H290.176V75.564H292.176V73.564ZM308.016 73.564H310.016V71.564H308.016V73.564ZM308.016 78.052V80.052H310.016V78.052H308.016ZM292.176 78.052V76.052H290.176V78.052H292.176ZM292.176 87.248H290.176V89.248H292.176V87.248ZM309.6 87.248H311.6V85.248H309.6V87.248ZM309.6 92V94H311.6V92H309.6ZM286.676 92H284.676V94H286.676V92ZM286.676 60.584V62.584H309.292V60.584V58.584H286.676V60.584ZM309.292 60.584H307.292V65.336H309.292H311.292V60.584H309.292ZM309.292 65.336V63.336H292.176V65.336V67.336H309.292V65.336ZM292.176 65.336H290.176V73.564H292.176H294.176V65.336H292.176ZM292.176 73.564V75.564H308.016V73.564V71.564H292.176V73.564ZM308.016 73.564H306.016V78.052H308.016H310.016V73.564H308.016ZM308.016 78.052V76.052H292.176V78.052V80.052H308.016V78.052ZM292.176 78.052H290.176V87.248H292.176H294.176V78.052H292.176ZM292.176 87.248V89.248H309.6V87.248V85.248H292.176V87.248ZM309.6 87.248H307.6V92H309.6H311.6V87.248H309.6ZM309.6 92V90H286.676V92V94H309.6V92ZM286.676 92H288.676V60.584H286.676H284.676V92H286.676Z" fill="#0D1116" mask="url(#path-1-outside-1_6_876)"/>
<mask id="path-3-outside-2_6_876" maskUnits="userSpaceOnUse" x="407.768" y="34.0002" width="34" height="82" fill="black">
<rect fill="white" x="407.768" y="34.0002" width="34" height="82"/>
<path d="M438.25 72.196C439.398 73.89 439.398 76.1125 438.25 77.8064L415.302 111.666C413.628 114.136 409.768 112.951 409.768 109.968V109.968C409.768 109.362 409.949 108.77 410.289 108.269L430.936 77.8064C432.084 76.1125 432.084 73.89 430.936 72.196L410.289 41.7314C409.949 41.2301 409.768 40.6385 409.768 40.033V40.033C409.768 37.0496 413.627 35.8649 415.301 38.3345L438.25 72.196Z"/>
</mask>
<path d="M438.25 72.196C439.398 73.89 439.398 76.1125 438.25 77.8064L415.302 111.666C413.628 114.136 409.768 112.951 409.768 109.968V109.968C409.768 109.362 409.949 108.77 410.289 108.269L430.936 77.8064C432.084 76.1125 432.084 73.89 430.936 72.196L410.289 41.7314C409.949 41.2301 409.768 40.6385 409.768 40.033V40.033C409.768 37.0496 413.627 35.8649 415.301 38.3345L438.25 72.196Z" fill="white"/>
<path d="M410.289 41.7314L408.634 42.8534L410.289 41.7314ZM430.936 77.8064L432.591 78.9285L430.936 77.8064ZM430.936 72.196L429.28 73.3181L430.936 72.196ZM410.289 108.269L411.945 109.391L410.289 108.269ZM415.302 111.666L413.646 110.544L415.302 111.666ZM438.25 77.8064L436.595 76.6843L438.25 77.8064ZM438.25 72.196L439.906 71.074L438.25 72.196ZM438.25 77.8064L436.595 76.6843L413.646 110.544L415.302 111.666L416.957 112.788L439.906 78.9285L438.25 77.8064ZM410.289 108.269L411.945 109.391L432.591 78.9285L430.936 77.8064L429.28 76.6843L408.634 107.147L410.289 108.269ZM430.936 72.196L432.592 71.074L411.945 40.6093L410.289 41.7314L408.634 42.8534L429.28 73.3181L430.936 72.196ZM415.301 38.3345L413.646 39.4566L436.595 73.3181L438.25 72.196L439.906 71.074L416.957 37.2125L415.301 38.3345ZM409.768 40.033H411.768C411.768 39.0206 413.078 38.6185 413.646 39.4566L415.301 38.3345L416.957 37.2125C414.177 33.1113 407.768 35.0787 407.768 40.033H409.768ZM410.289 41.7314L411.945 40.6093C411.829 40.4392 411.768 40.2384 411.768 40.033H409.768H407.768C407.768 41.0385 408.069 42.021 408.634 42.8534L410.289 41.7314ZM430.936 77.8064L432.591 78.9285C434.199 76.557 434.199 73.4455 432.592 71.074L430.936 72.196L429.28 73.3181C429.969 74.3344 429.969 75.6679 429.28 76.6843L430.936 77.8064ZM409.768 109.968H411.768C411.768 109.762 411.829 109.561 411.945 109.391L410.289 108.269L408.634 107.147C408.069 107.979 407.768 108.962 407.768 109.968H409.768ZM415.302 111.666L413.646 110.544C413.078 111.383 411.768 110.98 411.768 109.968H409.768H407.768C407.768 114.922 414.178 116.89 416.957 112.788L415.302 111.666ZM438.25 77.8064L439.906 78.9285C441.513 76.557 441.513 73.4455 439.906 71.074L438.25 72.196L436.595 73.3181C437.284 74.3345 437.284 75.668 436.595 76.6843L438.25 77.8064Z" fill="#0D1116" mask="url(#path-3-outside-2_6_876)"/>
<mask id="path-5-outside-3_6_876" maskUnits="userSpaceOnUse" x="377.384" y="34.0007" width="34" height="82" fill="black">
<rect fill="white" x="377.384" y="34.0007" width="34" height="82"/>
<path d="M407.867 72.1955C409.015 73.8895 409.015 76.112 407.867 77.8059L384.918 111.666C383.244 114.136 379.384 112.951 379.384 109.967V109.967C379.384 109.362 379.566 108.77 379.906 108.269L400.552 77.8059C401.7 76.112 401.7 73.8895 400.552 72.1955L379.906 41.7319C379.566 41.2306 379.384 40.639 379.384 40.0334V40.0334C379.384 37.05 383.244 35.8653 384.918 38.3349L407.867 72.1955Z"/>
</mask>
<path d="M407.867 72.1955C409.015 73.8895 409.015 76.112 407.867 77.8059L384.918 111.666C383.244 114.136 379.384 112.951 379.384 109.967V109.967C379.384 109.362 379.566 108.77 379.906 108.269L400.552 77.8059C401.7 76.112 401.7 73.8895 400.552 72.1955L379.906 41.7319C379.566 41.2306 379.384 40.639 379.384 40.0334V40.0334C379.384 37.05 383.244 35.8653 384.918 38.3349L407.867 72.1955Z" fill="#98DB2C"/>
<path d="M400.552 72.1955L398.897 73.3176L400.552 72.1955ZM379.906 108.269L381.561 109.391L379.906 108.269ZM384.918 111.666L383.263 110.544L384.918 111.666ZM407.867 77.8059L409.522 78.928L407.867 77.8059ZM407.867 72.1955L409.522 71.0735L407.867 72.1955ZM407.867 77.8059L406.211 76.6838L383.263 110.544L384.918 111.666L386.574 112.788L409.522 78.928L407.867 77.8059ZM379.906 108.269L381.561 109.391L402.208 78.928L400.552 77.8059L398.897 76.6838L378.25 107.146L379.906 108.269ZM400.552 72.1955L402.208 71.0734L381.561 40.6098L379.906 41.7319L378.25 42.8539L398.897 73.3176L400.552 72.1955ZM384.918 38.3349L383.262 39.457L406.211 73.3176L407.867 72.1955L409.522 71.0735L386.573 37.2129L384.918 38.3349ZM379.384 40.0334H381.384C381.384 39.021 382.694 38.6189 383.262 39.457L384.918 38.3349L386.573 37.2129C383.794 33.1117 377.384 35.0791 377.384 40.0334H379.384ZM379.906 41.7319L381.561 40.6098C381.446 40.4397 381.384 40.2389 381.384 40.0334H379.384H377.384C377.384 41.039 377.686 42.0215 378.25 42.8539L379.906 41.7319ZM400.552 77.8059L402.208 78.928C403.815 76.5565 403.815 73.445 402.208 71.0734L400.552 72.1955L398.897 73.3176C399.586 74.334 399.586 75.6675 398.897 76.6838L400.552 77.8059ZM379.384 109.967H381.384C381.384 109.762 381.446 109.561 381.561 109.391L379.906 108.269L378.25 107.146C377.686 107.979 377.384 108.962 377.384 109.967H379.384ZM384.918 111.666L383.263 110.544C382.694 111.382 381.384 110.98 381.384 109.967H379.384H377.384C377.384 114.922 383.794 116.889 386.574 112.788L384.918 111.666ZM407.867 77.8059L409.522 78.928C411.13 76.5565 411.13 73.445 409.522 71.0735L407.867 72.1955L406.211 73.3176C406.9 74.334 406.9 75.6675 406.211 76.6838L407.867 77.8059Z" fill="#0D1116" mask="url(#path-5-outside-3_6_876)"/>
<mask id="path-7-outside-4_6_876" maskUnits="userSpaceOnUse" x="347" y="34.0002" width="34" height="82" fill="black">
<rect fill="white" x="347" y="34.0002" width="34" height="82"/>
<path d="M377.483 72.196C378.631 73.89 378.631 76.1125 377.483 77.8064L354.534 111.666C352.86 114.136 349 112.951 349 109.968V109.968C349 109.362 349.182 108.77 349.521 108.269L370.168 77.8064C371.316 76.1125 371.316 73.89 370.168 72.196L349.521 41.7314C349.182 41.2301 349 40.6385 349 40.033V40.033C349 37.0496 352.86 35.8649 354.533 38.3345L377.483 72.196Z"/>
</mask>
<path d="M377.483 72.196C378.631 73.89 378.631 76.1125 377.483 77.8064L354.534 111.666C352.86 114.136 349 112.951 349 109.968V109.968C349 109.362 349.182 108.77 349.521 108.269L370.168 77.8064C371.316 76.1125 371.316 73.89 370.168 72.196L349.521 41.7314C349.182 41.2301 349 40.6385 349 40.033V40.033C349 37.0496 352.86 35.8649 354.533 38.3345L377.483 72.196Z" fill="white"/>
<path d="M349.521 41.7314L347.866 42.8534L349.521 41.7314ZM370.168 77.8064L371.824 78.9285L370.168 77.8064ZM370.168 72.196L368.513 73.3181L370.168 72.196ZM349.521 108.269L351.177 109.391L349.521 108.269ZM354.534 111.666L352.878 110.544L354.534 111.666ZM377.483 77.8064L375.827 76.6843L377.483 77.8064ZM377.483 72.196L379.138 71.074L377.483 72.196ZM377.483 77.8064L375.827 76.6843L352.878 110.544L354.534 111.666L356.189 112.788L379.138 78.9285L377.483 77.8064ZM349.521 108.269L351.177 109.391L371.824 78.9285L370.168 77.8064L368.513 76.6843L347.866 107.147L349.521 108.269ZM370.168 72.196L371.824 71.074L351.177 40.6093L349.521 41.7314L347.866 42.8534L368.513 73.3181L370.168 72.196ZM354.533 38.3345L352.878 39.4566L375.827 73.3181L377.483 72.196L379.138 71.074L356.189 37.2125L354.533 38.3345ZM349 40.033H351C351 39.0206 352.31 38.6185 352.878 39.4566L354.533 38.3345L356.189 37.2125C353.409 33.1113 347 35.0787 347 40.033H349ZM349.521 41.7314L351.177 40.6093C351.062 40.4392 351 40.2384 351 40.033H349H347C347 41.0385 347.302 42.021 347.866 42.8534L349.521 41.7314ZM370.168 77.8064L371.824 78.9285C373.431 76.557 373.431 73.4455 371.824 71.074L370.168 72.196L368.513 73.3181C369.201 74.3344 369.201 75.6679 368.513 76.6843L370.168 77.8064ZM349 109.968H351C351 109.762 351.062 109.561 351.177 109.391L349.521 108.269L347.866 107.147C347.302 107.979 347 108.962 347 109.968H349ZM354.534 111.666L352.878 110.544C352.31 111.383 351 110.98 351 109.968H349H347C347 114.922 353.41 116.89 356.189 112.788L354.534 111.666ZM377.483 77.8064L379.138 78.9285C380.745 76.557 380.745 73.4455 379.138 71.074L377.483 72.196L375.827 73.3181C376.516 74.3345 376.516 75.668 375.827 76.6843L377.483 77.8064Z" fill="#0D1116" mask="url(#path-7-outside-4_6_876)"/>
</svg>
